<?xml version="1.0" encoding="utf-8"?>
<!-- Generator: Adobe Illustrator 26.5.0, SVG Export Plug-In . SVG Version: 6.00 Build 0)  -->
<svg version="1.1" id="Camada_1" xmlns="http://www.w3.org/2000/svg" xmlns:xlink="http://www.w3.org/1999/xlink" x="0px" y="0px"
	 viewBox="0 0 231 52.5" style="enable-background:new 0 0 231 52.5;" xml:space="preserve">
<style type="text/css">
	.st0{fill:#FFFFFF;}
	.st1{fill:#C8C7C7;}
	.st2{fill:#B3C22C;}
</style>
<g id="g841">
	<g id="g1406">
		<path id="textoLogo" class="st0" d="M198.3,51.2c-0.4-0.2-0.7-0.3-0.8-0.3c-0.1,0,0.2-0.4,0.5-0.9c0.3-0.5,0.6-0.9,0.6-0.9
			s-0.3-0.2-0.6-0.4c-2.1-1.1-3-3.6-1.9-5.8c0.3-0.6,1-1.4,1.5-1.7c1.5-1,3.9-0.8,5.2,0.3l0.4,0.4l-0.6,0.7
			c-0.4,0.4-0.7,0.7-0.7,0.7c0,0-0.3-0.1-0.5-0.3c-1.2-0.9-2.8-0.5-3.4,0.9c-0.6,1.5,0.3,3.1,1.7,3.3c0.6,0.1,1.2-0.1,2.1-0.7
			c0.1-0.1,0.2,0,0.8,0.5c0.3,0.3,0.6,0.6,0.6,0.7c0,0.2-0.7,0.7-1.2,1c-0.4,0.2-0.7,0.3-1.5,0.4c-0.2,0-0.3,0.2-0.7,1.2
			c-0.4,0.9-0.5,1.2-0.6,1.2C199.1,51.5,198.7,51.3,198.3,51.2z M150.2,51.4c0,0-0.1-2.5-0.1-5.4v-5.3h1.1h1.1l0,0.4
			c0,0.7,0.1,0.7,0.6,0.3c0.8-0.7,1.7-1,2.8-0.7c2,0.4,3.2,2.1,3,4.5c-0.1,1.3-0.4,2.2-1.3,3c-0.6,0.6-1.3,0.9-2.3,0.9
			c-0.9,0-1.6-0.2-2.2-0.7c-0.6-0.5-0.6-0.5-0.7,1.4l0,1.6l-1,0C150.7,51.4,150.2,51.4,150.2,51.4L150.2,51.4z M155.4,46.9
			c0.5-0.2,0.9-0.8,1.1-1.5c0.4-1.5-0.6-3.1-2-3.1c-1.5,0-2.5,1.7-1.9,3.3C153,47,154.2,47.5,155.4,46.9L155.4,46.9z M118.4,49
			c-1.7-0.2-3.2-1.3-4-2.8c-0.5-0.9-0.6-1.6-0.6-2.7c0-1.7,0.5-2.9,1.6-4c1.2-1.2,2.6-1.7,4.4-1.6c0.5,0,1.2,0.1,1.5,0.2
			c0.7,0.2,1.7,0.7,2,1.1l0.3,0.3l-0.3,0.4c-1.1,1.4-1,1.3-1.7,0.8c-1.4-1-3.1-0.9-4.3,0.1c-0.9,0.8-1.3,2-1.1,3.2
			c0.2,1.2,0.8,2.1,1.8,2.6c0.6,0.3,0.7,0.3,1.4,0.3c0.9,0,1.4-0.2,2.2-0.8c0.3-0.2,0.5-0.4,0.6-0.4c0,0,0.4,0.3,0.8,0.7l0.7,0.7
			l-0.5,0.5C122,48.8,120.3,49.2,118.4,49L118.4,49z M128.7,49c-2.2-0.3-3.8-2-3.7-4.2c0-1.2,0.3-2.1,1.1-2.9c1.3-1.5,3.7-1.9,5.6-1
			c1.5,0.7,2.4,2.5,2.3,4.1C133.5,47.7,131.3,49.4,128.7,49L128.7,49z M130,47c1.2-0.4,1.9-1.7,1.5-2.9c-0.4-1.3-1.6-1.9-2.9-1.6
			c-0.5,0.1-1.3,0.9-1.4,1.4c-0.3,0.9-0.1,1.9,0.6,2.6C128.4,47.1,129.2,47.3,130,47z M163.7,49c-1.8-0.2-3-1.3-3.5-3.1
			c-0.5-1.9,0.4-4.2,2.1-5c2-1,4.4-0.2,5.3,1.7c0.3,0.6,0.5,1.8,0.5,2.4l0,0.4l-2.9,0c-2.8,0-2.9,0.1-2.9,0.2c0,0.3,0.4,0.9,0.8,1.2
			c0.4,0.3,0.5,0.3,1.2,0.3c0.8,0,1-0.1,1.8-0.6l0.3-0.2L167,47c0.3,0.3,0.6,0.5,0.6,0.6c0,0.2-0.7,0.7-1.2,1
			C165.6,49,164.7,49.1,163.7,49z M165.9,44c0-0.1,0-0.3-0.1-0.6c-0.4-0.8-0.8-1.1-1.6-1.2c-0.6,0-1.1,0.2-1.4,0.7
			c-0.3,0.4-0.5,1-0.4,1.1c0,0,0.8,0.1,1.8,0.1C165.5,44.1,165.9,44.1,165.9,44z M208.1,49c-1.7-0.2-3.2-1.6-3.6-3.2
			c-0.1-0.5-0.1-1.5,0-2c0.3-1.1,1.2-2.3,2.2-2.8c0.6-0.3,1.6-0.5,2.2-0.5c0.6,0,1.6,0.2,2.2,0.5c1.6,0.8,2.5,2.6,2.2,4.4
			C212.9,47.8,210.7,49.3,208.1,49L208.1,49z M209.5,47c1-0.3,1.7-1.4,1.5-2.4c-0.2-1.6-1.5-2.5-3-2.1c-0.5,0.1-1.3,0.9-1.4,1.4
			c-0.3,1.1,0,2.3,0.9,2.8C208.3,47.2,208.8,47.3,209.5,47z M218.1,49c-1.2-0.2-2.4-1-3-1.9c-1-1.7-0.6-4.4,0.9-5.6
			c1.6-1.3,4-1.3,5.4,0.1c0.8,0.8,1.2,2.1,1.2,3.3l0,0.6l-2.8,0c-2.2,0-2.8,0-2.9,0.1c-0.1,0.3,0.5,1.2,1.1,1.5
			c0.7,0.3,1.8,0.2,2.6-0.4c0.1-0.1,0.3-0.2,0.4-0.2c0.1,0,0.3,0.2,0.7,0.5c0.7,0.6,0.6,0.7-0.2,1.2C220.6,48.9,219.3,49.2,218.1,49
			z M220.4,44c0-0.3-0.3-0.8-0.5-1.1c-0.4-0.4-0.7-0.5-1.3-0.5c-0.5,0-0.9,0.2-1.3,0.5c-0.3,0.3-0.5,0.8-0.5,1.1
			c0,0.2,0.1,0.2,1.8,0.2C220.4,44.1,220.4,44.1,220.4,44z M180.9,48.9c-0.6-0.2-1.9-0.8-2-1c-0.1-0.1,0-0.3,0.3-0.8
			c0.2-0.3,0.4-0.6,0.4-0.7s0.4,0.1,0.8,0.3c1.6,0.8,2.9,0.7,2.9-0.2c0-0.4-0.3-0.6-1.4-0.9c-1.2-0.4-1.6-0.6-2-0.9
			c-0.8-0.7-1-1.8-0.5-2.8c0.5-1.1,1.4-1.5,3-1.4c0.8,0,1.1,0.1,1.7,0.3c1,0.4,1.1,0.4,0.7,1.2c-0.5,0.9-0.5,0.9-0.8,0.8
			c-0.3-0.2-1.6-0.6-2-0.6c-0.7,0-1.1,0.5-0.8,0.9c0.2,0.3,0.4,0.4,1.5,0.8c1.1,0.4,1.4,0.5,1.9,0.9c0.5,0.4,0.7,0.9,0.7,1.6
			c0,1.1-0.4,1.8-1.3,2.2c-0.5,0.3-0.7,0.3-1.6,0.3C181.8,49,181.3,49,180.9,48.9z M188.2,48.9c-0.6-0.2-1.2-0.8-1.5-1.3
			c-0.1-0.3-0.2-0.6-0.2-1.1c0-1.3,0.6-2,1.7-2.4c0.7-0.2,2-0.3,2.9-0.1c0.7,0.1,0.8,0.1,0.7-0.4c-0.1-0.5-0.4-0.8-0.8-1
			c-0.5-0.2-1.7-0.2-2.4,0c-0.8,0.2-0.8,0.2-1.1-0.6c-0.1-0.4-0.2-0.8-0.2-0.8c0-0.1,0.4-0.2,0.8-0.4c0.7-0.2,0.9-0.3,2.1-0.3
			c1.2,0,1.4,0,1.9,0.2c0.6,0.3,1.1,0.7,1.4,1.2c0.4,0.7,0.5,1.4,0.5,4.3l0,2.6l-1.1,0l-1.1,0l0-0.3c0-0.3-0.2-0.4-0.5-0.1
			c-0.6,0.4-1,0.6-1.9,0.6C188.9,49,188.5,49,188.2,48.9L188.2,48.9z M191.2,47.3c0.4-0.2,0.8-0.8,0.8-1.3c0-0.4-0.2-0.5-1-0.7
			c-1.3-0.2-2.3,0.3-2.3,1.2C188.7,47.4,190.1,47.9,191.2,47.3z M225.8,48.8c-0.7-0.2-1.7-0.6-1.9-0.9c-0.1-0.1-0.1-0.2,0.3-0.8
			c0.2-0.4,0.4-0.7,0.5-0.7c0,0,0.3,0.1,0.7,0.3c1.2,0.6,2.4,0.8,2.8,0.3c0.1-0.1,0.2-0.3,0.2-0.4c0-0.4-0.4-0.6-1.5-1
			c-1.3-0.4-1.5-0.5-2-1c-0.9-0.8-0.9-2.3,0-3.3c0.6-0.6,1.2-0.8,2.3-0.8c0.4,0,1,0.1,1.3,0.1c0.7,0.2,1.5,0.6,1.6,0.7
			c0,0.1-0.7,1.5-0.8,1.5c0,0-0.2-0.1-0.5-0.2c-0.6-0.3-1.3-0.5-1.7-0.5c-0.4,0-0.8,0.2-0.9,0.5c-0.2,0.5,0.2,0.7,1.6,1.2
			c1.2,0.4,1.6,0.7,2,1.1c0.4,0.5,0.6,0.9,0.5,1.6c-0.1,1.1-0.7,1.8-1.8,2.2C227.8,49.1,226.7,49.1,225.8,48.8L225.8,48.8z
			 M135.5,44.7v-4.1h1.1h1.1v0.5c0,0.3,0,0.5,0.1,0.5c0.1,0,0.3-0.1,0.5-0.3c0.6-0.6,1.1-0.8,1.9-0.8c0.9,0,1.6,0.3,2,0.8
			c0.1,0.2,0.3,0.3,0.3,0.3s0.3-0.2,0.7-0.4c0.7-0.5,1.3-0.7,2.1-0.7c0.9,0,1.4,0.2,2,0.7c0.7,0.7,0.8,1,0.8,4.6v3H147h-1.1l0-2.6
			c0-2.5,0-2.7-0.2-3c-0.3-0.5-0.6-0.7-1.2-0.7c-0.6,0-0.9,0.1-1.2,0.6c-0.2,0.2-0.2,0.4-0.2,2.9l0,2.7h-1.1h-1.1l0-2.7
			c0-2.5-0.1-2.7-0.2-2.9c-0.3-0.4-0.6-0.6-1.1-0.6c-0.6-0.1-1.2,0.3-1.4,0.8c-0.2,0.3-0.2,0.6-0.2,3l0,2.6h-1.1h-1.1V44.7z
			 M169.9,48.7c0-0.1,0-1.9,0-4.1l0-4h1.1h1.1l0,0.4c0,0.6,0.1,0.6,0.5,0.2c0.7-0.6,1.1-0.8,2-0.8c0.6,0,0.8,0,1.3,0.3
			c0.4,0.2,0.7,0.4,0.8,0.7c0.5,0.7,0.6,1,0.6,4.4v3h-1.1h-1.1l0-2.6c0-2.5,0-2.7-0.2-3c-0.2-0.4-0.9-0.7-1.3-0.7
			c-0.4,0-1.1,0.4-1.3,0.7c-0.2,0.3-0.2,0.5-0.2,2.9l0,2.6l-1.1,0C170.2,48.8,169.9,48.8,169.9,48.7L169.9,48.7z M206.3,39.5
			c-0.3-0.1-0.5-0.2-0.5-0.3c0-0.2,0.4-1.1,0.7-1.4c0.5-0.5,1.2-0.6,2.4-0.2c1,0.3,1.4,0.4,1.7,0c0.1-0.1,0.2-0.3,0.2-0.3
			c0-0.1,0.3-0.1,0.8,0.1c0.4,0.1,0.4,0.2,0.4,0.4c-0.1,0.4-0.5,1.2-0.8,1.4c-0.2,0.2-0.4,0.3-0.9,0.3c-0.5,0-0.7,0-1.4-0.3
			c-1-0.3-1.3-0.4-1.6-0.1c-0.1,0.1-0.2,0.3-0.2,0.3C207,39.7,206.7,39.7,206.3,39.5z M155.5,34.2c-0.7-0.1-2-0.6-2.1-0.7
			c-0.1-0.1,0.7-1.7,0.8-1.6c1.7,0.7,2.9,0.9,3.9,0.5c0.7-0.3,1.2-1.1,1.2-2c0-0.2,0-0.3-0.1-0.4c0,0-0.3,0.1-0.5,0.3
			c-0.7,0.6-1.1,0.8-2.1,0.8c-2.1,0-3.5-1.3-3.7-3.4c-0.1-1.3,0.3-2.5,1.2-3.3c0.7-0.7,1.3-0.9,2.4-0.9c1,0,1.4,0.1,2.1,0.7
			c0.2,0.2,0.5,0.3,0.5,0.3c0,0,0.1-0.2,0.1-0.5v-0.4h1.1h1.1l0,3.6c0,2.7,0,3.8-0.1,4.2c-0.3,1.5-1.1,2.3-2.6,2.7
			C158.1,34.3,156.3,34.3,155.5,34.2L155.5,34.2z M158.3,28.9c1.3-0.8,1.3-2.7,0-3.4c-1.6-0.9-3.6,0.4-3.2,2.2
			c0.1,0.6,0.7,1.2,1.2,1.4C157,29.3,157.8,29.2,158.3,28.9z M130.5,31.8c-0.7-0.2-1.2-0.7-1.4-1.4c-0.1-0.2-0.1-1.4-0.1-2.6
			c0-2.5,0-2.5-0.7-2.5H128v-0.9v-0.9h0.4c0.2,0,0.4,0,0.5-0.1c0.1-0.1,0.1-0.4,0.1-1.1v-0.9h1.1h1.1v1c0,0.7,0,1,0.1,1.1
			c0.1,0.1,0.5,0.1,1,0.1l0.9,0v0.9v0.9l-0.9,0c-0.5,0-0.9,0.1-1,0.1c-0.1,0.1-0.2,3.6,0,4c0.1,0.4,0.6,0.5,1.2,0.4
			c0.2-0.1,0.5-0.1,0.5-0.1c0,0,0.1,0.4,0.1,0.8v0.8l-0.4,0.2C132.2,31.9,131,32,130.5,31.8L130.5,31.8z M137.3,31.7
			c-1.1-0.4-2-1.1-2.5-2.2c-0.3-0.6-0.3-0.7-0.3-1.9v-1.2l0.4-0.8c0.8-1.6,2.2-2.4,3.9-2.3c2.2,0.2,3.6,1.7,3.6,4.1l0,0.9l-2.8,0
			c-1.5,0-2.8,0.1-2.9,0.1c0,0,0,0.3,0.1,0.5c0.5,1.2,2.1,1.6,3.5,0.7c0.3-0.2,0.5-0.3,0.6-0.2c0.1,0,0.4,0.3,0.6,0.5
			c0.3,0.3,0.5,0.5,0.4,0.6c-0.1,0.3-1.1,1-1.8,1.2C139.4,32,138.1,32,137.3,31.7z M140.3,26.8c0-0.3-0.4-1.1-0.7-1.3
			c-0.4-0.3-1-0.4-1.5-0.3c-0.5,0.1-1.1,0.6-1.3,1.2c-0.3,0.7-0.3,0.7,1.7,0.7C140.2,27,140.2,27,140.3,26.8L140.3,26.8z
			 M166.3,31.8c-1.6-0.4-2.8-1.7-3-3.4c-0.4-2.8,1.6-5.2,4.3-5c1,0.1,1.6,0.3,2.3,1c0.9,0.8,1.4,2.2,1.4,3.5l0,0.5l-2.9,0l-2.9,0
			l0,0.3c0,0.4,0.4,0.9,1,1.2c0.8,0.4,1.8,0.3,2.6-0.3c0.2-0.1,0.4-0.2,0.4-0.2c0.1,0,0.4,0.2,0.7,0.5l0.6,0.5l-0.4,0.4
			c-0.2,0.2-0.7,0.5-1,0.7c-0.6,0.3-0.7,0.3-1.7,0.4C167.1,31.9,166.5,31.9,166.3,31.8z M169,26.9c0.1-0.2-0.2-0.9-0.6-1.3
			c-0.7-0.6-1.6-0.6-2.3-0.1c-0.3,0.3-0.7,0.9-0.7,1.3V27h1.8C168.7,27,169,27,169,26.9L169,26.9z M184.3,31.8
			c-0.5-0.2-0.9-0.5-1.2-1.1c-0.2-0.4-0.2-0.6-0.2-2.8c0-1.7-0.1-2.4-0.1-2.5c-0.1,0-0.3-0.1-0.4-0.1l-0.3,0v-0.9v-0.9l0.4,0l0.4,0
			l0-1l0-1h1.1h1.1l0,1l0,1l0.9,0l0.9,0v0.9v0.9h-0.8c-0.5,0-0.9,0-1,0.1c-0.1,0-0.1,0.3-0.1,2c0,1.8,0,2,0.2,2.2
			c0.2,0.3,0.6,0.4,1.2,0.2c0.4-0.1,0.5-0.1,0.5,0c0,0.1,0,0.5,0,0.9l0,0.8l-0.5,0.2C186,31.9,184.9,31.9,184.3,31.8z M191.4,31.8
			c-2.2-0.6-3.5-2.8-2.9-5.2c0.5-2.1,2.3-3.4,4.3-3.2c1.8,0.2,3.1,1.3,3.5,3.3c0.1,0.4,0.1,0.9,0.1,1.2l0,0.5l-2.9,0
			c-2.8,0-2.9,0.1-2.9,0.2c0,0.1,0.1,0.4,0.3,0.6c0.6,1,2.3,1.2,3.4,0.4c0.2-0.1,0.4-0.2,0.4-0.2c0.2,0,1.2,0.9,1.2,1.1
			c0,0.2-0.7,0.8-1.4,1.1c-0.6,0.3-0.7,0.3-1.7,0.3C192.2,31.9,191.7,31.9,191.4,31.8L191.4,31.8z M194.2,26.9
			c0.1-0.2-0.2-0.9-0.5-1.3c-0.7-0.7-1.7-0.7-2.4,0c-0.3,0.3-0.7,1-0.6,1.3C190.7,27.1,194.1,27.1,194.2,26.9z M205.1,31.7
			c-1.6-0.5-2.6-2.1-2.6-4.1c0-1.6,0.5-2.8,1.5-3.5c0.7-0.5,1.3-0.7,2.2-0.7c0.9,0,1.2,0.1,2,0.7c0.3,0.2,0.5,0.4,0.6,0.3
			c0,0,0.1-0.9,0.1-2v-1.9h1.1h1.1v5.6v5.6H210h-1.1v-0.5c0-0.3,0-0.5-0.1-0.5c0,0-0.3,0.1-0.5,0.3c-0.6,0.6-1.1,0.8-2,0.8
			C205.8,31.9,205.5,31.9,205.1,31.7z M207.4,29.9c0.6-0.2,1.2-0.8,1.4-1.4c0.4-1.2-0.1-2.6-1.1-3.1c-0.7-0.4-1.7-0.2-2.3,0.4
			c-0.6,0.6-0.8,1.7-0.5,2.6c0.2,0.5,0.9,1.3,1.4,1.4C206.8,30.1,206.9,30.1,207.4,29.9L207.4,29.9z M215.7,31.7
			c-0.8-0.2-1.1-0.4-1.7-1c-2-2-1.4-5.8,1.1-7c1.9-0.9,4.1-0.2,5.1,1.5c0.4,0.6,0.6,1.8,0.6,2.5l0,0.6l-2.8,0c-3.1,0-3.1,0-2.7,0.6
			c0.4,0.8,1,1.1,1.9,1.1c0.6,0,1.1-0.2,1.6-0.5c0.4-0.3,0.5-0.3,1.2,0.4l0.5,0.4l-0.4,0.4c-0.8,0.8-1.6,1.1-3,1.1
			C216.5,31.9,216.1,31.8,215.7,31.7L215.7,31.7z M218.6,26.9c0-0.1,0-0.3-0.1-0.6c-0.5-1.2-1.8-1.6-2.8-0.7c-0.4,0.3-0.7,1-0.6,1.3
			C215.2,27.1,218.5,27.1,218.6,26.9L218.6,26.9z M114.3,26.3V21l1.1,0l1.1,0v5.3v5.3l-1.1,0l-1.1,0V26.3z M119,27.6v-4.1h1.1h1.1
			V24c0,0.6,0.2,0.6,0.6,0.2c0.7-0.7,1.8-1,2.8-0.7c0.8,0.2,1.2,0.6,1.6,1.3l0.3,0.6l0,3.2l0,3.2h-1.1h-1.1l0-2.6c0-2.6,0-2.6-0.3-3
			c-0.7-1.2-2.4-0.9-2.8,0.5c0,0.2-0.1,1.4-0.1,2.7l0,2.4h-1.1H119V27.6z M144.3,26.1v-5.6h1.1h1.1v5.6v5.6h-1.1h-1.1V26.1z
			 M148.8,27.6v-4.1l1.1,0l1.1,0v4v4l-1.1,0l-1.1,0V27.6z M173,27.6v-4.1h1.1h1.1V24c0,0.3,0,0.5,0.1,0.5c0.1,0,0.3-0.2,0.6-0.4
			c0.6-0.5,1.3-0.7,2.1-0.7c0.8,0.1,1.3,0.3,1.7,0.8c0.7,0.8,0.7,0.9,0.7,4.5v3.1h-1.1h-1.1v-2.6c0-2.5,0-2.6-0.2-3
			c-0.3-0.5-0.6-0.8-1.1-0.8c-0.6-0.1-1.2,0.2-1.5,0.8c-0.2,0.4-0.2,0.5-0.2,3v2.6h-1.1H173V27.6z M148.8,21.5v-1h1.2h1.1v1v1H150
			h-1.2V21.5z M117.8,14.7c-1.9-0.5-3.4-2-3.9-3.9c-0.2-0.7-0.2-2.2,0-2.9c0.4-1.4,1.4-2.8,2.7-3.4c1-0.5,1.7-0.7,3.1-0.6
			c0.8,0,1.3,0.1,1.7,0.2c0.6,0.2,2,1,2.1,1.3c0,0.1-1.2,1.7-1.3,1.7c0,0-0.3-0.2-0.6-0.4c-0.8-0.5-1.4-0.7-2.2-0.7
			c-1.1,0-2,0.5-2.6,1.4c-0.4,0.6-0.6,1.3-0.6,2.1c0,2.4,2.2,4,4.5,3.2c0.2-0.1,0.6-0.3,0.9-0.5c0.3-0.2,0.6-0.4,0.7-0.4
			s0.4,0.3,0.8,0.7l0.7,0.7l-0.5,0.4c-0.6,0.6-1.6,1.1-2.3,1.2C120.1,14.8,118.5,14.8,117.8,14.7L117.8,14.7z M128.1,14.6
			c-1.2-0.3-2.2-1.2-2.7-2.3c-0.6-1.3-0.5-2.9,0.2-4.1c1.1-1.6,3-2.4,5-1.9c1.3,0.3,2.3,1.2,2.9,2.3c1.1,2.5-0.1,5.2-2.8,6
			C130,14.8,128.7,14.8,128.1,14.6L128.1,14.6z M130.5,12.6c0.5-0.3,0.9-0.8,1.1-1.5c0.5-1.9-1.5-3.6-3.2-2.7
			c-0.8,0.4-1.2,1.1-1.2,2.1c0,0.7,0.2,1.1,0.6,1.6C128.5,13,129.5,13.1,130.5,12.6z M146.9,14.7c-0.6-0.2-0.9-0.4-1.2-0.9
			c-0.2-0.4-0.2-0.5-0.3-2.9c-0.1-2.7,0-2.6-0.7-2.6l-0.3,0V7.3V6.4l0.3,0c0.6,0,0.6-0.1,0.7-1.2l0-1h1.1h1.1l0,1
			c0,0.5,0.1,1,0.1,1.1c0.1,0.1,0.4,0.1,1,0.1h0.9v0.9v0.9h-0.9c-0.6,0-0.9,0-1,0.1c-0.1,0.1-0.1,0.7-0.1,2.1l0,1.9l0.2,0.2
			c0.2,0.2,0.3,0.2,0.8,0.1c0.3,0,0.6-0.1,0.7-0.1c0.2-0.1,0.2,0,0.1,0.8l0,0.9l-0.5,0.2C148.5,14.8,147.4,14.8,146.9,14.7z
			 M160.4,14.7c-0.8-0.2-1.4-0.6-2-1.2c-0.9-1-1.3-2.2-1.1-3.6c0.5-3,3.8-4.6,6.6-3.1c0.6,0.3,1.5,1.2,1.7,1.7
			c0.7,1.3,0.6,3-0.1,4.2c-0.5,0.9-1.7,1.8-2.7,2C162.3,14.8,160.9,14.8,160.4,14.7z M162.7,12.6c0.5-0.2,1-0.8,1.1-1.4
			c0.1-0.2,0.1-0.6,0.1-0.9c-0.1-1.3-1-2.2-2.3-2.2c-0.9,0-1.7,0.7-2,1.6c-0.2,0.6-0.2,0.9,0,1.5C160,12.6,161.4,13.3,162.7,12.6z
			 M175,14.7c-2-0.6-3.1-2.3-3-4.4c0.1-1.4,0.7-2.5,1.7-3.3c0.8-0.6,1.3-0.7,2.5-0.7c1.3,0,1.8,0.2,2.7,1c0.5,0.5,0.7,0.8,0.9,1.2
			c0.3,0.7,0.5,2.3,0.4,2.5c-0.1,0.1-0.4,0.2-2.9,0.2l-2.8,0l0,0.2c0,0.3,0.4,0.9,0.7,1.1c0.8,0.6,1.9,0.5,2.8-0.1
			c0.2-0.2,0.5-0.3,0.5-0.3c0.1,0,0.4,0.2,0.7,0.5c0.6,0.6,0.6,0.6-0.1,1.2c-0.7,0.6-1.3,0.7-2.5,0.8
			C175.8,14.8,175.2,14.7,175,14.7L175,14.7z M177.8,9.8c0.1-0.2-0.3-1-0.6-1.3C176.8,8.2,176.3,8,176,8s-0.9,0.2-1.1,0.5
			c-0.3,0.3-0.7,1.1-0.7,1.3c0,0.1,0.4,0.1,1.8,0.1C177.5,9.9,177.7,9.9,177.8,9.8z M135.5,10.5V6.4h1.1h1.1v0.4
			c0,0.6,0.2,0.6,0.7,0.1c0.6-0.6,1.2-0.8,2.1-0.7c0.9,0.1,1.5,0.4,1.9,1C143,8,143,8.2,143,11.5l0,3h-1.1h-1.1l0-2.7
			c0-2.5-0.1-2.7-0.2-2.9c-0.3-0.4-0.6-0.6-1.1-0.7c-0.6-0.1-1.2,0.2-1.5,0.8c-0.2,0.3-0.2,0.6-0.2,3l0,2.6h-1.1h-1.1V10.5z
			 M151.3,10.5V6.4h1.1h1.1v0.6c0,0.4,0,0.7,0.1,0.7c0,0,0.3-0.2,0.5-0.5c0.5-0.6,1-0.9,1.6-1l0.5-0.1l0,1.2l0,1.2l-0.5,0.1
			c-0.9,0.1-1.6,0.6-1.9,1.5c-0.2,0.5-0.2,0.7-0.2,2.5l0,2h-1.1h-1.1V10.5z M167.9,14.5c0-0.1,0-2.6,0-5.6l0-5.5h1.1h1.1V9v5.6
			l-1.1,0C168.2,14.6,168,14.6,167.9,14.5z"/>
		<path id="logoMaior" class="st0" d="M24.3,51.8c-5.1-0.4-9.8-2.3-13.8-5.5c-1.1-0.9-3-2.8-3.9-3.9c-1.6-2-3.2-4.9-4-7.1
			c-0.7-1.8-1.2-4-1.5-6c-0.2-1.1-0.2-4.9,0-6.1C2.2,14.6,7.3,7.3,15,3.5c2.3-1.1,5-2,7.8-2.4c1.3-0.2,4.8-0.3,6.2-0.1
			c4.6,0.5,9.1,2.2,12.7,4.9c1.7,1.3,2,1.7,2,2.5c0,0.5-0.1,0.7-2.7,5.3c-2.9,5.2-2.9,5.2-3.7,5.3c-0.7,0.1-1-0.1-2.1-1.2
			c-2-1.9-4.1-3-6.6-3.5c-1.1-0.2-3-0.2-4.1,0c-5,0.9-8.9,4.6-10,9.7c-0.2,1.1-0.2,3.7,0,4.8c0.6,2.6,1.6,4.5,3.4,6.3
			c1.1,1.1,2,1.8,3.3,2.4c1.8,0.9,3.2,1.2,5.3,1.2c2.4,0,4-0.4,5.9-1.6c1.3-0.8,2-1.3,2.9-2.3c0.4-0.4,0.7-0.7,0.7-0.6
			c-0.1,0.2-8.9,16-9.6,17.1C25.9,52,26,51.9,24.3,51.8L24.3,51.8z M67.5,51.7c-4.3-0.5-8.4-1.9-11.8-4.2c-1-0.6-2.3-1.7-2.7-2.1
			c-0.4-0.4-0.6-1-0.4-1.5c0.1-0.3,4.9-9.1,5.4-9.7c0.2-0.3,0.8-0.6,1.2-0.6c0.5,0,1,0.3,2,1.3c2,1.9,4,3,6.6,3.4
			c1.4,0.2,3.6,0.2,4.8-0.2c3.7-0.9,6.6-3.3,8.2-6.7c2.2-4.7,1.3-10.2-2.4-13.9c-3.2-3.2-7.7-4.4-12-3.1c-1.9,0.6-3.9,1.8-5.5,3.6
			c-0.4,0.5-0.8,0.8-0.8,0.7c0-0.1,8.9-16,9.7-17.4l0.4-0.7l0.9,0.1c2.9,0.2,5.5,0.8,7.9,1.7C88,6,94,13.8,95.2,23.4
			c0.2,1.3,0.2,4.6,0,5.9c-0.9,7.5-5,14.1-11.2,18.3c-3.4,2.3-7.2,3.6-11.3,4.1C71.6,51.8,68.4,51.8,67.5,51.7z"/>
		<path id="LogoMenor" class="st1" d="M26.5,50.6c0,0,1.2-3,2.6-6.7l2.6-6.6l0.8-0.5c1-0.6,1.7-1.2,2.5-1.9c0.3-0.3,0.6-0.6,0.7-0.6
			c0.1,0.1-8.9,16-9.1,16.2C26.5,50.7,26.5,50.7,26.5,50.6z M60.5,18.1c0.7-1.4,9.2-16.3,9.3-16.4c0.1-0.1,0.1-0.1,0.1,0.1
			c-0.1,0.3-4.4,10.9-5,12.4l-0.4,1l-0.8,0.5c-0.9,0.5-2.4,1.7-2.8,2.2C60.6,18.3,60.4,18.4,60.5,18.1z"/>
		<path id="verdeLogo" class="st2" d="M25.9,51.9c-0.1,0,0.4-0.8,1.3-2.3c1.7-3,5-9.1,8.7-15.5c2.3-4,4.6-7.5,7.2-12.2
			c2.6-4.7,5-8.8,5.2-9.2c0.8-1.3,2.4-3.5,4.4-5.3c1.3-1.1,2.7-2.4,4-3.2c3.4-2.2,6.2-2.8,10-3.3c0.8-0.1,3.4-0.2,3.4-0.1
			c0,0-0.3,0.6-0.7,1.3c-0.6,1.1-2.7,4.9-6.4,11.3c-0.6,1.1-2.2,4.1-3.7,6.6c-2.9,5.1-6,10.4-7.9,13.9c-1.9,3.5-3.3,5.9-4,6.8
			c-0.3,0.5-0.7,1-0.8,1.2c-0.7,1-2.8,3.1-4.2,4.3c-0.9,0.7-2.3,1.7-3.3,2.2c-0.9,0.5-1.5,0.9-3.9,1.8c-0.9,0.3-1.8,0.6-2.5,0.8
			c-1.2,0.4-2.3,0.5-3.1,0.7C28.6,51.8,26.1,52,25.9,51.9z"/>
	</g>
</g>
</svg>
