<?xml version="1.0" encoding="utf-8"?>
<!-- Generator: Adobe Illustrator 26.5.0, SVG Export Plug-In . SVG Version: 6.00 Build 0)  -->
<svg version="1.1" id="Camada_1" xmlns="http://www.w3.org/2000/svg" xmlns:xlink="http://www.w3.org/1999/xlink" x="0px" y="0px"
	 viewBox="0 0 98 52.5" style="enable-background:new 0 0 98 52.5;" xml:space="preserve">
<style type="text/css">
	.st0{fill:#FFFFFF;}
	.st1{fill:#C8C7C7;}
	.st2{fill:#B3C22C;}
</style>
<path id="logoMaior" class="st0" d="M24.3,51.8c-5.1-0.4-9.8-2.3-13.8-5.5c-1.1-0.9-3-2.8-3.9-3.9c-1.6-2-3.2-4.9-4-7.1
	c-0.7-1.8-1.2-4-1.5-6c-0.2-1.1-0.2-4.9,0-6.1C2.2,14.6,7.3,7.3,15,3.5c2.3-1.1,5-2,7.8-2.4C24.1,0.9,27.6,0.8,29,1
	c4.6,0.5,9.1,2.2,12.7,4.9c1.7,1.3,2,1.7,2,2.5c0,0.5-0.1,0.7-2.7,5.3c-2.9,5.2-2.9,5.2-3.7,5.3c-0.7,0.1-1-0.1-2.1-1.2
	c-2-1.9-4.1-3-6.6-3.5c-1.1-0.2-3-0.2-4.1,0c-5,0.9-8.9,4.6-10,9.7c-0.2,1.1-0.2,3.7,0,4.8c0.6,2.6,1.6,4.5,3.4,6.3
	c1.1,1.1,2,1.8,3.3,2.4c1.8,0.9,3.2,1.2,5.3,1.2c2.4,0,4-0.4,5.9-1.6c1.3-0.8,2-1.3,2.9-2.3c0.4-0.4,0.7-0.7,0.7-0.6
	c-0.1,0.2-8.9,16-9.6,17.1C25.9,52,26,51.9,24.3,51.8L24.3,51.8z M67.5,51.7c-4.3-0.5-8.4-1.9-11.8-4.2c-1-0.6-2.3-1.7-2.7-2.1
	c-0.4-0.4-0.6-1-0.4-1.5c0.1-0.3,4.9-9.1,5.4-9.7c0.2-0.3,0.8-0.6,1.2-0.6c0.5,0,1,0.3,2,1.3c2,1.9,4,3,6.6,3.4
	c1.4,0.2,3.6,0.2,4.8-0.2c3.7-0.9,6.6-3.3,8.2-6.7c2.2-4.7,1.3-10.2-2.4-13.9c-3.2-3.2-7.7-4.4-12-3.1c-1.9,0.6-3.9,1.8-5.5,3.6
	c-0.4,0.5-0.8,0.8-0.8,0.7c0-0.1,8.9-16,9.7-17.4l0.4-0.7l0.9,0.1C74,0.9,76.6,1.5,79,2.4c9,3.6,15,11.4,16.2,21
	c0.2,1.3,0.2,4.6,0,5.9c-0.9,7.5-5,14.1-11.2,18.3c-3.4,2.3-7.2,3.6-11.3,4.1C71.6,51.8,68.4,51.8,67.5,51.7z"/>
<path id="LogoMenor" class="st1" d="M26.4,50.7c0,0,1.2-3,2.6-6.7l2.6-6.6l0.8-0.5c1-0.6,1.7-1.2,2.5-1.9c0.3-0.3,0.6-0.6,0.7-0.6
	c0.1,0.1-8.9,16-9.1,16.2C26.4,50.8,26.4,50.8,26.4,50.7z M60.4,18.2c0.7-1.4,9.2-16.3,9.3-16.4c0.1-0.1,0.1-0.1,0.1,0.1
	c-0.1,0.3-4.4,10.9-5,12.4l-0.4,1l-0.8,0.5c-0.9,0.5-2.4,1.7-2.8,2.2C60.5,18.4,60.3,18.5,60.4,18.2z"/>
<path id="verdeLogo" class="st2" d="M26,51.8c-0.1,0,0.4-0.8,1.3-2.3c1.7-3,5-9.1,8.7-15.5c2.3-4,4.6-7.5,7.2-12.2
	c2.6-4.7,5-8.8,5.2-9.2c0.8-1.3,2.4-3.5,4.4-5.3c1.3-1.1,2.7-2.4,4-3.2c3.4-2.2,6.2-2.8,10-3.3c0.8-0.1,3.4-0.2,3.4-0.1
	c0,0-0.3,0.6-0.7,1.3c-0.6,1.1-2.7,4.9-6.4,11.3c-0.6,1.1-2.2,4.1-3.7,6.6c-2.9,5.1-6,10.4-7.9,13.9s-3.3,5.9-4,6.8
	c-0.3,0.5-0.7,1-0.8,1.2c-0.7,1-2.8,3.1-4.2,4.3c-0.9,0.7-2.3,1.7-3.3,2.2c-0.9,0.5-1.5,0.9-3.9,1.8c-0.9,0.3-1.8,0.6-2.5,0.8
	c-1.2,0.4-2.3,0.5-3.1,0.7C28.7,51.7,26.2,51.9,26,51.8z"/>
</svg>
