<svg xmlns="http://www.w3.org/2000/svg" version="1.1" id="logo" width="230" viewBox="0 0 2500 563"><g id="g841"><g id="g1406"><path fill="#a4a2a2" d="m 2149,551.44215 c -4.125,-1.85894 -7.9471,-3.54292 -8.4935,-3.74217 -0.5464,-0.19926 1.8161,-4.6231 5.25,-9.83075 3.4339,-5.20766 6.2435,-9.77716 6.2435,-10.15445 0,-0.3773 -2.7854,-2.09205 -6.1898,-3.81057 -23.0505,-11.63588 -32.1887,-38.99706 -21.0091,-62.90421 2.883,-6.16515 10.7062,-14.99832 16.5927,-18.73498 16.7974,-10.66258 42.4731,-9.02906 56.7135,3.60818 l 4.3112,3.82583 -6.9592,7.63249 c -3.8276,4.19786 -7.2929,7.64058 -7.7006,7.65048 -0.4078,0.01 -2.7809,-1.53877 -5.2736,-3.44149 -13.4607,-10.27482 -30.6247,-5.47427 -36.4915,10.20623 -6.0282,16.1117 2.9552,33.34319 18.6646,35.80145 6.573,1.02855 13.3461,-1.31138 22.5771,-7.79972 1.4991,-1.05366 2.6225,-0.34056 8.25,5.237 3.5831,3.55122 6.5147,6.99719 6.5147,7.65772 0,1.7281 -7.7115,8.1314 -13.1274,10.9004 -4.1438,2.1186 -7.2536,3.06832 -16.0106,4.88964 -2.3199,0.4825 -3.2675,2.11734 -7.8584,13.55771 -3.8053,9.48295 -5.6653,12.98494 -6.862,12.92008 -0.9029,-0.0489 -5.0166,-1.60993 -9.1416,-3.46887 z m -523.3024,1.92209 C 1625.3139,552.98057 1625,526.64167 1625,494.83333 V 437 h 12 12 l 0.015,4.25 c 0.026,7.23435 1.1833,7.74345 6.4875,2.85418 8.3233,-7.67214 18.6453,-10.45547 30.0418,-8.1008 21.9093,4.52674 34.5808,23.26458 33.134,48.99662 -0.8215,14.60962 -4.7816,23.97608 -13.8251,32.69925 -6.6061,6.37208 -14.5809,9.61074 -24.8535,10.0933 -10.1464,0.47664 -17.2132,-1.71531 -23.8528,-7.39854 -6.7511,-5.7787 -7.0598,-5.13748 -7.374,15.31569 L 1648.5,553.5 l -11.0524,0.2809 c -6.0789,0.1545 -11.3664,-0.033 -11.75,-0.41666 z m 56.319,-48.37271 c 5.0265,-2.56433 9.5633,-8.73859 11.6203,-15.81443 4.7377,-16.29707 -6.3443,-33.1771 -21.7813,-33.1771 -16.8444,0 -27.4988,18.51487 -20.862,36.25326 4.9683,13.27898 18.8169,18.96534 31.023,12.73827 z m -401.3864,22.86466 c -18.3018,-2.32695 -35.2716,-14.10869 -43.8278,-30.4286 C 1231.7771,487.8426 1230,480.15453 1230,468 c 0,-18.19619 5.2461,-31.29329 17.4592,-43.58758 12.58,-12.66355 27.7309,-18.10266 47.5408,-17.06697 5.775,0.30193 12.975,1.29108 16,2.1981 7.7877,2.33509 18.1142,7.94731 22,11.95649 l 3.3103,3.41531 -3.5884,4.29233 c -12.3355,14.75527 -10.968,14.15262 -18.9827,8.36552 -14.9125,-10.76776 -33.9325,-10.12393 -46.294,1.56708 -9.2595,8.75723 -13.6458,22.06635 -11.4609,34.77471 2.3316,13.56103 8.8818,22.92562 19.79,28.29301 6.0952,2.99913 7.4927,3.28868 15.7081,3.25469 10.3096,-0.0427 15.308,-1.79916 24.1791,-8.49689 2.889,-2.18119 5.6208,-3.9658 6.0706,-3.9658 0.4499,0 4.1817,3.41046 8.2929,7.5788 l 7.475,7.57879 -5.9528,5.45838 c -12.5683,11.52443 -31.2291,16.74339 -50.917,14.24022 z m 111.1062,0.13213 c -23.5322,-2.96832 -40.7922,-22.22421 -40.712,-45.41982 0.044,-12.70796 3.7203,-22.73157 11.5184,-31.40486 14.5793,-16.2157 39.9844,-20.59983 60.4272,-10.42786 15.9377,7.93036 26.4241,27.05894 24.618,44.90655 -2.7976,27.64405 -26.9901,45.98654 -55.8516,42.34599 z m 14.6498,-21.40402 c 13.1428,-3.95542 20.2421,-18.03153 16.1659,-32.05309 -3.9724,-13.66459 -17.3408,-21.16816 -31.0521,-17.42933 -5.2619,1.43483 -13.5948,9.90033 -15.271,15.51414 -3.0505,10.21636 -0.5921,20.86294 6.4415,27.8966 6.7324,6.73236 14.7229,8.7781 23.7157,6.07168 z M 1772.5,527.92908 c -19.5045,-2.58413 -33.0434,-14.56073 -38.0083,-33.62238 -5.5207,-21.19546 4.6891,-45.36279 22.9651,-54.36006 22.0515,-10.85591 48.0477,-2.48381 58.07,18.7015 3.1145,6.58356 5.707,19.38129 5.2796,26.06232 L 1820.5,489.5 l -31,0.5 c -30.0588,0.48482 -31.0077,0.56072 -31.2541,2.5 -0.4039,3.17846 3.8883,9.64771 8.5975,12.95841 4.014,2.82191 4.9524,3.04159 12.9916,3.04159 8.8448,0 10.6638,-0.55309 19.7767,-6.01336 l 3.1118,-1.86449 6.1382,5.33889 c 3.3761,2.93639 6.1383,5.89405 6.1383,6.57257 0,1.86441 -7.3103,8.08319 -12.7308,10.83 -8.6051,4.36049 -19.1315,5.97485 -29.7692,4.56547 z m 24.1104,-54.35621 c 0.3012,-0.78493 -0.4099,-3.59182 -1.5802,-6.23755 -3.8959,-8.80723 -8.9973,-12.47229 -17.4663,-12.54839 -6.7252,-0.0604 -12.0208,2.48063 -15.6711,7.51976 -2.9494,4.07158 -5.2248,10.34713 -4.2963,11.84946 0.2868,0.46412 9.0591,0.84385 19.4939,0.84385 15.5113,0 19.0723,-0.26035 19.52,-1.42713 z M 2255,527.89809 c -18.3079,-2.32628 -34.8291,-17.18019 -38.9395,-35.00987 -1.2968,-5.62536 -1.2971,-16.14975 -6e-4,-21.77356 2.7506,-11.93111 12.9438,-24.83502 23.99,-30.36965 5.9895,-3.001 17.1156,-5.71028 23.4501,-5.71028 6.2324,0 17.4129,2.68897 23.4826,5.64767 16.8843,8.23046 27.1878,28.66362 24.1869,47.96595 -4.0754,26.21436 -27.8751,42.84495 -56.1695,39.24974 z m 15.911,-21.46431 c 10.6541,-3.16391 18.1296,-14.99946 16.7629,-26.53954 -2.005,-16.92889 -16.3665,-27.10275 -32.1739,-22.79236 -5.2619,1.43483 -13.5948,9.90033 -15.271,15.51414 -3.568,11.94935 0.4772,24.61493 9.8406,30.81134 6.9462,4.59676 12.6941,5.42591 20.8414,3.00642 z m 93.201,21.50425 c -12.7786,-1.69441 -26.0806,-10.38332 -32.3973,-21.16188 -11.0512,-18.85747 -6.6796,-47.37877 9.3673,-61.11431 16.8569,-14.42895 43.8276,-13.80019 58.7602,1.36987 8.4282,8.56215 13.5309,22.67163 12.9514,35.81192 L 2412.5,489.5 l -30.787,0.26451 c -24.3059,0.20882 -30.893,0.54091 -31.2908,1.57755 -1.399,3.6459 5.6582,12.88047 12.0692,15.79296 8.134,3.69518 19.9015,1.99375 28.4856,-4.11865 1.5575,-1.109 3.2991,-2.01637 3.8704,-2.01637 0.5712,0 3.7575,2.51721 7.0806,5.59381 7.1176,6.58964 7.0466,7.16608 -1.6502,13.39369 -9.3204,6.67419 -23.0421,9.69071 -36.1658,7.95053 z M 2389,472.96788 c 0,-3.16923 -2.8357,-9.18322 -5.803,-12.30716 -3.9771,-4.18694 -8.0299,-5.94643 -13.697,-5.94643 -5.6671,0 -9.7199,1.75949 -13.697,5.94643 -2.9673,3.12394 -5.803,9.13793 -5.803,12.30716 0,1.97335 0.5639,2.03212 19.5,2.03212 18.9361,0 19.5,-0.0588 19.5,-2.03212 z m -429.5799,53.47289 c -6.9572,-1.72038 -20.2188,-8.17461 -21.7349,-10.57801 -0.7867,-1.24717 -0.036,-3.18808 3.2838,-8.48978 2.367,-3.78014 4.4665,-7.05966 4.6655,-7.28783 0.199,-0.22816 4.0752,1.43089 8.6137,3.6868 17.1895,8.5442 31.7518,7.76482 31.7518,-1.69937 0,-4.17759 -3.5339,-6.53428 -15.1938,-10.13237 -13.3219,-4.11099 -17.8188,-6.13438 -22.218,-9.99695 -8.5481,-7.50531 -10.5359,-19.53271 -5.0449,-30.52442 5.7108,-11.43158 15.6193,-16.00719 32.8861,-15.18624 8.2041,0.39007 11.5827,1.0685 18.2292,3.66056 11.2291,4.37915 11.513,4.85388 7.5146,12.56557 -5.0878,9.81316 -5.3797,10.10432 -8.2565,8.23812 -3.7156,-2.41027 -17.3469,-6.69685 -21.296,-6.69685 -7.5179,0 -12.2074,4.92938 -9.1413,9.6089 2.2465,3.42866 4.8233,4.82041 16.2232,8.76261 11.7945,4.0786 15.3937,5.79961 20.4687,9.7872 5.1375,4.03677 7.8287,10.06324 7.8287,17.53129 0,11.94354 -4.4857,19.45461 -14.5891,24.42848 -5.9781,2.94301 -7.5536,3.26572 -17.245,3.53233 -7.0562,0.1941 -12.7236,-0.21542 -16.7458,-1.21004 z m 79.2911,-0.0969 c -6.0419,-2.09436 -13.4456,-8.54995 -15.8327,-13.80517 -1.252,-2.75619 -1.8384,-6.4204 -1.8468,-11.53871 -0.022,-13.59252 6.1154,-22.04436 18.9683,-26.12081 7.9107,-2.509 21.4602,-2.88811 31.3191,-0.8763 7.8576,1.60342 8.9171,0.97837 7.6752,-4.52795 -1.1259,-4.99217 -4.4959,-9.05836 -9.0016,-10.8612 -5.273,-2.10981 -18.7095,-2.11496 -26.5326,-0.0102 -9.1285,2.45599 -8.634,2.71129 -11.7215,-6.05192 -1.5402,-4.3716 -2.5861,-8.50674 -2.3242,-9.18921 0.2619,-0.68246 4.2133,-2.47039 8.7809,-3.97318 7.499,-2.46727 9.7599,-2.73873 23.3047,-2.79828 13.2627,-0.0583 15.637,0.19085 20.5,2.15124 6.9264,2.79222 12.2839,7.17973 15.5295,12.71785 4.5359,7.74003 5.4341,15.36991 5.4531,46.32169 l 0.017,28.28173 -11.75,-0.28173 -11.75,-0.28174 -0.3134,-3.25 c -0.3572,-3.70561 -1.8375,-4.09299 -5.3017,-1.38745 -6.166,4.81558 -11.1686,6.44353 -20.8849,6.79634 -6.9942,0.25398 -10.7631,-0.0929 -14.2888,-1.31501 z m 32.4956,-17.49514 c 4.8657,-2.66196 8.7932,-9.15517 8.7932,-14.53758 0,-4.13421 -2.4414,-5.79888 -10.6557,-7.26573 -14.0082,-2.50148 -25.3443,3.27087 -25.3443,12.90536 0,10.32559 15.3945,15.36033 27.2068,8.89795 z m 375.9949,17.1291 c -7.5953,-1.98984 -17.9783,-6.96853 -20.6196,-9.88717 -1.3908,-1.53676 -1.1104,-2.32116 3.0886,-8.64043 2.54,-3.82263 4.791,-7.15053 5.0022,-7.39533 0.2112,-0.24479 3.4423,1.20683 7.1804,3.22582 12.889,6.96167 25.6386,8.42413 30.8401,3.53758 1.2686,-1.19182 2.3066,-3.23395 2.3066,-4.53808 0,-4.23943 -4.056,-6.87461 -16.6031,-10.78715 -14.2201,-4.4342 -16.3113,-5.45121 -22.01,-10.70409 -9.9201,-9.144 -9.7296,-25.32534 0.4205,-35.72078 6.3559,-6.50953 13.3635,-9.06821 24.8358,-9.06821 4.7124,0 11.2509,0.69517 14.5298,1.54483 7.1613,1.85569 16.8272,6.29217 17.4939,8.02939 0.4399,1.14638 -7.272,16.42578 -8.2905,16.42578 -0.2436,0 -2.5654,-1.07481 -5.1596,-2.38848 -6.0559,-3.06655 -14.6492,-5.61152 -18.948,-5.61152 -4.2723,0 -8.9385,2.3839 -9.7653,4.98903 -1.6779,5.28654 1.7723,7.94876 17.4965,13.50071 12.7287,4.49429 17.5615,7.17562 22.213,12.32421 4.6324,5.12761 6.1582,9.97301 5.5452,17.61013 -0.9407,11.71877 -7.6766,19.92601 -19.3003,23.51622 -8.5124,2.6292 -20.3079,2.64383 -30.2562,0.0375 z M 1466,481.5 V 437 h 12 12 v 4.94098 c 0,2.71754 0.492,5.24504 1.0933,5.61667 0.6013,0.37162 2.9638,-1.12976 5.25,-3.33641 6.7986,-6.56206 11.8531,-8.62809 21.1567,-8.64788 9.7886,-0.0208 17.6442,3.12699 21.9757,8.80583 1.5189,1.99145 3.1344,3.62081 3.59,3.62081 0.4556,0 3.6924,-2.16777 7.1929,-4.81727 7.365,-5.57458 13.6053,-7.68273 22.7414,-7.68273 10.0784,0 15.673,2.06212 21.5541,7.94464 8.0181,8.02016 8.4459,10.54608 8.4459,49.87096 V 526 h -11.9437 -11.9437 l -0.3063,-28.75 c -0.2838,-26.63785 -0.4532,-28.99945 -2.3063,-32.14547 -3.3152,-5.62834 -6.7795,-7.5712 -13.5,-7.5712 -6.3699,0 -9.5195,1.6053 -13.4382,6.84932 -1.9423,2.59919 -2.0908,4.44985 -2.5618,31.93821 L 1546.5,525.5 h -12 -12 l -0.5,-29.17914 c -0.471,-27.48836 -0.6195,-29.33902 -2.5618,-31.93821 -3.2664,-4.37103 -6.8677,-6.56695 -11.574,-7.05718 -6.0956,-0.63496 -12.5463,2.81012 -15.3063,8.17453 -1.9094,3.71131 -2.0801,6.03888 -2.365,32.25 L 1489.8858,526 H 1477.9429 1466 Z m 373.4699,43.2819 c -0.2705,-0.70504 -0.3744,-20.6319 -0.2309,-44.2819 l 0.261,-43 h 12 12 l 0.285,4 c 0.489,6.8639 0.8366,7.00641 5.9659,2.44581 7.1797,-6.38366 12.2801,-8.35401 21.7491,-8.40192 6.9339,-0.0351 8.7995,0.35907 13.9999,2.95782 3.8955,1.94665 7.1309,4.50443 9.2244,7.29242 5.8578,7.80101 6.2757,10.95685 6.2757,47.38737 V 526 h -11.9437 -11.9437 l -0.3063,-28.75 c -0.2847,-26.72326 -0.4489,-28.99673 -2.3292,-32.25 -2.3105,-3.99761 -9.3032,-8 -13.9771,-8 -4.6739,0 -11.6666,4.00239 -13.9771,8 -1.8644,3.22569 -2.0621,5.73365 -2.5229,32 l -0.5,28.5 -11.7691,0.2819 c -8.8585,0.21218 -11.8908,-0.0351 -12.261,-1 z M 2235.5,425.01848 c -2.9463,-0.99582 -5.1328,-2.37352 -5.3233,-3.35419 -0.4204,-2.16405 4.3122,-12.47756 7.1311,-15.54022 5.3965,-5.86324 13.1662,-6.50559 25.6922,-2.12407 10.8676,3.80142 15.2748,3.88553 18.5477,0.35398 1.3488,-1.45532 2.4523,-3.03032 2.4523,-3.5 0,-1.30935 3.1514,-1.02172 8.4,0.76664 4.3756,1.49093 4.7063,1.83106 4.1318,4.25 -1.1416,4.80698 -5.4239,12.65182 -8.5315,15.62906 -2.6502,2.53912 -3.9806,2.98919 -9.7838,3.3098 -5.6044,0.30962 -8.1142,-0.14062 -15.1579,-2.71921 -10.3759,-3.79846 -14.2996,-3.94016 -17.6041,-0.63572 -1.35,1.35 -2.4545,2.87685 -2.4545,3.39301 0,1.79351 -2.5288,1.85114 -7.5,0.17092 z M 1683.0533,366.5401 c -7.708,-1.46535 -21.6896,-6.14268 -22.557,-7.54606 -0.903,-1.46116 7.4207,-18.24489 8.7566,-17.65643 18.1582,7.99882 31.4289,9.57434 42.6907,5.06829 7.6853,-3.07507 13.0564,-12.03878 13.0564,-21.7897 0,-1.92399 -0.4161,-3.75535 -0.9247,-4.06968 -0.5086,-0.31434 -3.0961,1.30861 -5.75,3.60654 -7.5497,6.53708 -12.2988,8.266 -22.8253,8.30963 -22.9832,0.0953 -38.2117,-13.92028 -40.1593,-36.96053 -1.234,-14.59821 3.387,-27.39682 13.0953,-36.2697 7.8594,-7.18305 14.5092,-9.59767 26.564,-9.64573 10.7152,-0.0427 14.9233,1.36452 23.2975,7.79094 2.6386,2.0249 5.2261,3.41674 5.75,3.09297 0.5239,-0.32377 0.9525,-2.58712 0.9525,-5.02966 V 251 h 12 12 l -0.017,39.25 c -0.013,29.84925 -0.354,40.8382 -1.4229,45.88107 -3.4088,16.08266 -11.8628,24.98714 -28.0597,29.55525 -7.397,2.08622 -27.4882,2.55686 -36.4467,0.85378 z m 31.3416,-56.92561 c 14.1674,-8.30266 14.2462,-28.88014 0.1422,-37.14561 -17.6108,-10.32062 -38.601,4.14611 -34.4048,23.71224 1.3549,6.31768 7.1491,13.01293 13.1907,15.24196 6.1681,2.27573 15.4639,1.47787 21.0719,-1.80859 z m -303.0547,31.49154 c -7.6478,-1.97629 -13.225,-7.43133 -15.3242,-14.9884 -0.5527,-1.9897 -1.0074,-14.7393 -1.0104,-28.33245 C 1394.9993,270.09295 1395.2513,271 1387.5657,271 H 1384 v -10 -10 h 4.3 c 2.365,0 4.84,-0.54 5.5,-1.2 0.778,-0.77799 1.2,-4.82222 1.2,-11.5 V 228 h 12 12 v 10.37756 c 0,7.31179 0.3853,10.69729 1.3041,11.45988 0.7173,0.59528 5.5548,1.21288 10.75,1.37244 L 1440.5,251.5 v 9.5 9.5 l -9.5,0.5 c -5.225,0.275 -10.0625,0.86406 -10.75,1.30902 -1.5561,1.00715 -1.7827,39.15971 -0.2564,43.17425 1.5183,3.99337 6.9993,5.89845 13.1655,4.57604 2.7166,-0.58262 5.3672,-1.05931 5.8901,-1.05931 0.5311,0 0.9508,3.99797 0.9508,9.05623 v 9.05623 l -4.6681,2.06492 c -5.1262,2.26756 -18.5151,3.34388 -23.9917,1.92865 z m 74.4575,-1.03683 c -12.2455,-3.91538 -21.5463,-12.09551 -27.1127,-23.84587 -3.0935,-6.53012 -3.185,-7.1135 -3.185,-20.30043 v -13.5771 l 4.223,-8.52065 c 8.437,-17.02318 23.6491,-25.85519 42.277,-24.54563 24.0402,1.69004 39.0445,18.54198 39.3723,44.22048 l 0.1277,10 -30.465,0.26498 c -16.7557,0.14574 -30.8604,0.66045 -31.3438,1.14378 -0.505,0.50507 -0.059,2.73141 1.0482,5.23502 5.9466,13.443 23.1471,17.02172 37.6391,7.83115 2.7541,-1.74664 5.5171,-2.8029 6.4655,-2.47169 0.9108,0.31811 4.0299,2.74347 6.9314,5.3897 3.6954,3.37041 5.0866,5.30302 4.6453,6.4531 -1.2058,3.14215 -12.4556,10.58439 -19.1035,12.6377 -8.5698,2.64695 -23.3827,2.68711 -31.5195,0.0855 z m 32.011,-53.73656 c 0.4383,-3.07702 -4.2266,-11.78199 -7.6018,-14.18534 -4.5029,-3.2063 -11.1355,-4.51288 -16.1097,-3.17347 -5.5053,1.48242 -11.556,7.04232 -13.6602,12.55204 -2.9037,7.60319 -3.0247,7.55528 18.2901,7.24628 18.3971,-0.2667 18.7791,-0.31554 19.0816,-2.43951 z m 282.9454,54.64167 c -17.1847,-4.31855 -30.1272,-18.95068 -32.9258,-37.22431 -4.7175,-30.80397 17.7596,-56.68084 47.2691,-54.41858 10.7537,0.82441 17.7925,3.74638 24.9195,10.34469 9.5592,8.85012 15.5156,24.25758 14.7784,38.2273 L 1854.5,303.5 l -31,0.5 -31,0.5 0.2068,2.88556 c 0.3404,4.74943 4.6416,10.11084 10.4224,12.99153 8.7784,4.37446 19.5508,3.31003 28.5775,-2.82376 2.0667,-1.40433 4.2514,-2.55333 4.855,-2.55333 0.6036,0 3.9031,2.53892 7.3321,5.64204 l 6.2347,5.64205 -3.8143,3.91905 c -2.0978,2.15547 -7.1192,5.556 -11.1587,7.55673 -7.0243,3.47908 -7.8527,3.64898 -19,3.89673 -6.4105,0.14248 -13.3411,-0.16455 -15.4014,-0.68229 z m 29.8987,-53.51202 c 1.0174,-2.65125 -2.6039,-10.18536 -6.6546,-13.84491 -7.1383,-6.44906 -17.0204,-6.87784 -24.6458,-1.06937 -3.5842,2.73012 -7.3524,9.78631 -7.3524,13.76771 V 289 h 19.0314 c 16.2017,0 19.1191,-0.22863 19.6214,-1.53771 z m 166.051,53.17762 c -5.8085,-1.64001 -10.2574,-5.61057 -13.0423,-11.63991 -1.8965,-4.10608 -2.1135,-6.77601 -2.4788,-30.5 -0.2769,-17.98292 -0.7522,-26.22654 -1.5415,-26.73469 -0.6277,-0.40408 -2.8287,-0.74158 -4.8912,-0.75 L 1971,271 v -9.94521 -9.94521 l 4.75,-0.30479 4.75,-0.30479 0.5,-11 0.5,-11 h 12 12 l 0.5,11 0.5,11 10.25,0.28498 10.25,0.28499 V 261.03498 271 h -8.9182 c -4.905,0 -9.63,0.27314 -10.5,0.60699 -1.3738,0.52715 -1.5818,3.40298 -1.5818,21.86514 0,19.78687 0.1393,21.4352 2.0122,23.81623 2.6547,3.37496 6.3229,4.04862 12.8175,2.35397 4.1077,-1.07186 5.4359,-1.11379 5.7931,-0.18292 0.2549,0.66427 0.3316,4.98237 0.1703,9.59577 l -0.2931,8.388 -5,1.87297 c -6.4988,2.43441 -18.5785,3.07929 -24.7962,1.32376 z m 77.2962,0.0589 c -24.2638,-6.92286 -37.5404,-30.8112 -31.4602,-56.60577 5.305,-22.50589 24.4852,-36.64665 47.1177,-34.73787 19.874,1.67614 33.5175,14.4747 37.8952,35.54821 0.8459,4.07187 1.4051,9.92187 1.2426,13 L 2128.5,303.5 l -31,0.5 c -30.0454,0.4846 -31.0088,0.56159 -31.2858,2.5 -0.1572,1.1 1.0849,4.16031 2.7601,6.8007 6.9879,11.0137 24.9883,13.06707 36.6403,4.17968 1.7886,-1.36421 3.8445,-2.47401 4.5687,-2.46624 1.817,0.0195 12.8167,9.8483 12.8167,11.45234 0,2.26011 -7.9991,8.63819 -14.8606,11.84906 -5.9997,2.80761 -7.6664,3.11841 -18.1234,3.37959 -7.2322,0.18064 -13.1899,-0.18997 -16.016,-0.99629 z m 30.4873,-52.67827 c 1.2456,-2.01542 -2.0627,-9.58545 -5.9599,-13.6376 -7.5784,-7.87956 -18.863,-8.04738 -26.516,-0.39434 -3.6439,3.64391 -7.1215,11.27422 -6.2718,13.76137 0.5335,1.56144 37.7891,1.82159 38.7477,0.27057 z M 2222.5,340.02088 c -17.4992,-5.78582 -27.9267,-22.40937 -27.9267,-44.52088 0,-16.97007 5.7602,-30.2554 16.7043,-38.52697 7.3226,-5.53443 13.6848,-7.48258 24.2224,-7.41711 10.2164,0.0635 13.2528,1.09337 21.4155,7.2638 2.9785,2.25156 5.791,3.86166 6.25,3.57799 0.459,-0.28366 0.8345,-9.93919 0.8345,-21.45673 V 218 h 12 12 v 61 61 h -12 -12 v -4.94098 c 0,-2.71754 -0.3764,-5.17362 -0.8365,-5.45796 -0.46,-0.28434 -2.8178,1.27614 -5.2395,3.46773 -6.7841,6.13951 -12.0452,8.26133 -21.3827,8.62377 -5.9961,0.23274 -9.5673,-0.19243 -14.0413,-1.67168 z m 25.2396,-19.53619 c 6.0901,-1.80856 13.2,-9.00215 15.0716,-15.24887 4.019,-13.41433 -1.1459,-27.73333 -12.0214,-33.3274 -7.7329,-3.97766 -18.6883,-1.89455 -24.9808,4.75 -6.2394,6.58839 -8.5807,18.61328 -5.5929,28.72556 1.6419,5.55701 10.0258,13.96505 15.3184,15.36236 5.5542,1.4664 6.4508,1.44718 12.2051,-0.26165 z M 2338,340.1176 c -8.1745,-2.6379 -11.8379,-4.82139 -18.082,-10.77719 -22.2558,-21.22847 -15.719,-63.47021 11.7692,-76.05476 20.5566,-9.41112 44.9284,-2.44868 55.6863,15.90825 3.8278,6.53168 6.7851,19.17392 6.4243,27.46365 L 2393.5,303.5 l -30.787,0.26451 c -34.2314,0.29409 -33.3678,0.095 -29.8744,6.88854 4.2099,8.18683 11.3186,12.37563 20.8793,12.30306 6.7292,-0.0511 11.8062,-1.66129 17.3489,-5.50238 4.7343,-3.28092 5.6669,-2.99766 12.9441,3.93162 l 5.1307,4.88535 -3.8208,3.91483 c -8.1598,8.36064 -17.7082,11.84243 -32.2523,11.76069 -6.2986,-0.0354 -11.448,-0.6603 -15.0685,-1.82862 z m 31.6528,-52.65531 c 0.3246,-0.84573 -0.1905,-3.58168 -1.1446,-6.07988 -5.0976,-13.34805 -20.0999,-17.16669 -30.5064,-7.76503 -4.0507,3.65955 -7.672,11.19366 -6.6546,13.84491 0.8847,2.30572 37.4209,2.30572 38.3056,0 z M 1236,281.5 v -58.56156 l 12.25,0.28078 12.25,0.28078 v 58 58 l -12.25,0.28078 -12.25,0.28078 z m 51,14 V 251 h 12 12 v 4.53138 c 0,6.14376 2.0308,6.80138 6.8205,2.20871 8.0551,-7.72357 19.5374,-10.5222 30.3155,-7.38892 8.4006,2.44212 13.1352,6.42355 17.0214,14.31372 l 3.3426,6.78649 0.3202,34.27431 0.3201,34.27431 h -11.9779 -11.9778 l -0.3423,-28.25 c -0.3368,-27.79613 -0.3814,-28.31828 -2.7764,-32.49991 -7.4866,-13.0715 -26.6267,-9.68489 -30.1084,5.3273 -0.5004,2.15744 -0.9205,15.51011 -0.9336,29.67261 L 1311,340 h -12 -12 z M 1562,279 v -61 h 12 12 v 61 61 h -12 -12 z m 49,16.5 v -44.56156 l 12.25,0.28078 12.25,0.28078 v 44 44 l -12.25,0.28078 -12.25,0.28078 z m 263,0 V 251 h 12 12 v 5 c 0,2.75 0.4564,5 1.0141,5 0.5578,0 3.486,-2.01337 6.5072,-4.47415 6.9601,-5.66911 14.4293,-8.00644 23.0214,-7.20409 8.7244,0.81469 13.817,3.17226 18.7825,8.69503 7.3391,8.1629 7.6748,10.28838 7.6748,48.59804 V 340 h -12 -12 v -27.78811 c 0,-26.84594 -0.076,-27.93741 -2.25,-32.19146 -2.9194,-5.71339 -6.4589,-8.19892 -12.4255,-8.72544 -6.9104,-0.60981 -13.0717,2.71221 -16.0745,8.6669 -2.1723,4.30782 -2.25,5.42141 -2.25,32.25 V 340 h -12 -12 z m -263,-67 V 218 h 12.5 12.5 v 10.5 10.5 h -12.5 -12.5 z m -337,-74.06968 c -20.8306,-5.44646 -37.1564,-21.92811 -42.485,-42.89042 -1.9799,-7.78903 -1.9652,-24.391266 0.028,-32.045277 4.0788,-15.659646 15.4459,-30.144666 29.3207,-37.363089 11.3283,-5.89363 18.9713,-7.448167 33.6359,-6.841256 8.3346,0.344937 14.0483,1.148196 18.706,2.629756 6.6915,2.12852 21.4938,11.134146 22.4663,13.668296 0.4605,1.200005 -13.2072,18.427069 -14.599,18.400885 -0.3153,-0.0059 -3.4394,-2.012567 -6.9424,-4.459188 -8.1536,-5.694798 -14.7564,-7.875335 -23.6309,-7.804002 -12.1127,0.09736 -21.6678,5.280542 -28.4455,15.430263 -4.6073,6.899372 -6.5421,13.948704 -6.4072,23.343712 0.3786,26.3801 24.2763,43.49465 48.7004,34.87732 2.1412,-0.75544 6.732,-3.39938 10.2018,-5.87542 3.4699,-2.47605 6.6895,-4.5019 7.1547,-4.5019 0.4652,0 4.2096,3.41056 8.3208,7.57902 l 7.475,7.57902 -5.3762,4.86342 c -6.6935,6.05509 -16.8498,11.46643 -25.2269,13.4411 -8.0545,1.89861 -25.5778,1.88144 -32.8969,-0.0322 z m 111.1046,-0.0128 c -13.1598,-3.53888 -23.871,-12.50664 -29.767,-24.92191 -6.701,-14.11044 -5.6718,-31.517354 2.6177,-44.274434 11.573,-17.810069 32.3479,-25.77372 53.9516,-20.681353 13.8426,3.262931 25.4107,12.503616 31.2357,24.951215 12.4661,26.639522 -1.3078,56.362532 -30.0741,64.897482 -6.7339,1.99794 -20.5886,2.01231 -27.9639,0.029 z m 26.3228,-22.29241 c 5.7106,-3.04239 9.8055,-8.75898 11.5837,-16.17136 5.0092,-20.880725 -15.7949,-38.654512 -34.521,-29.492691 C 1379.8156,90.705058 1375,98.843617 1375,109.25971 c 0,7.24587 1.816,12.24966 6.2905,17.333 8.2477,9.36981 19.1702,11.37491 30.1369,5.53236 z m 178.2401,22.50537 c -6.3031,-1.77798 -9.6013,-4.30852 -12.6675,-9.71902 -2.4532,-4.3289 -2.5094,-4.91251 -3,-31.19972 -0.5535,-29.65508 -0.3041,-28.668024 -7.25,-28.696387 L 1563,85 V 75 65 l 3.75,-0.01531 c 6.3086,-0.02576 6.6942,-0.700876 7.25,-12.695118 L 1574.5,41.5 h 11.5 11.5 l 0.2871,10.442246 c 0.1579,5.743236 0.7755,11.030736 1.3725,11.75 C 1599.9122,64.599122 1603.1195,65 1609.6224,65 H 1619 v 10 10 h -9.3776 c -6.8836,0 -9.6911,0.377882 -10.5568,1.420899 -0.8461,1.019506 -1.0925,7.401057 -0.8724,22.590141 l 0.3068,21.16925 2.4861,2.01132 c 2.0546,1.66225 3.5298,1.93238 8.5,1.55651 3.3076,-0.25014 6.8184,-0.80044 7.8016,-1.2229 1.6582,-0.71249 1.7668,-0.0554 1.5,9.07435 l -0.2877,9.84246 -5,1.86521 c -6.5603,2.44729 -17.6624,3.06368 -23.8325,1.3232 z m 147.0202,-0.13213 c -8.2645,-2.27186 -15.4616,-6.59212 -21.5071,-12.91037 -10.2407,-10.7026 -14.6498,-24.39104 -12.4448,-38.63633 5.0489,-32.618607 41.1258,-49.685439 72.0211,-34.070848 6.4136,3.241431 15.8932,12.549615 19.0077,18.663831 7.2999,14.331057 6.8703,32.164527 -1.1028,45.769447 -5.5703,9.50513 -18.7625,19.08695 -29.7736,21.62542 -6.0558,1.39609 -20.3953,1.15465 -26.2005,-0.44115 z m 25.3031,-21.89466 c 5.3057,-2.61444 10.502,-9.01475 12.0935,-14.8957 0.6263,-2.31437 0.9234,-6.92119 0.6601,-10.23736 -1.121,-14.120024 -11.2786,-23.51195 -25.3604,-23.448628 -9.7994,0.04407 -18.8736,7.152858 -21.8276,17.099948 -1.9267,6.48818 -1.9591,10.2223 -0.1407,16.26425 4.5623,15.1592 20.4777,22.16405 34.5751,15.21749 z M 1895,154.61852 c -21.5009,-6.23831 -34.1084,-24.57371 -32.7426,-47.61852 0.9018,-15.217035 7.1842,-27.6484 17.994,-35.60618 8.4637,-6.230614 14.1842,-7.905783 26.7486,-7.832974 14.317,0.08297 20.0902,2.336929 29.0656,11.347702 5.0521,5.07204 7.1856,8.153019 9.2555,13.365777 3.1971,8.051453 5.6681,24.933555 4.0298,27.531885 -0.9596,1.52187 -4.1781,1.72063 -31.7094,1.95824 L 1887,118.0289 l 0.016,2.23555 c 0.025,3.43296 4.1329,9.91961 7.8811,12.44552 8.897,5.99573 20.279,5.73477 30.4216,-0.69748 2.6127,-1.65687 5.2971,-3.01168 5.9655,-3.01068 0.6684,9.9e-4 3.9153,2.43649 7.2153,5.41221 6.9394,6.25752 6.8995,6.72762 -1.091,12.8431 -7.9596,6.09193 -14.2166,8.03948 -26.909,8.37567 -6.9398,0.18383 -12.661,-0.19055 -15.5,-1.01427 z m 30.3895,-53.19123 c 0.9388,-2.446399 -3.2772,-11.121462 -6.9884,-14.380018 -3.0914,-2.714233 -8.8088,-5.036118 -12.4011,-5.036118 -3.5923,0 -9.3097,2.321885 -12.4011,5.036118 -3.5876,3.15002 -8.0861,12.240716 -7.1999,14.550018 0.4356,1.13524 4.1468,1.40271 19.4626,1.40271 16.2881,0 19.0085,-0.21909 19.5279,-1.57271 z M 1466,109.5 V 65 h 12 12 v 4.531385 c 0,6.421572 1.9464,6.72784 7.823,1.23097 6.4671,-6.049212 13.0827,-8.209424 22.8735,-7.468944 9.5271,0.720529 16.449,4.383298 21.0399,11.133391 5.5291,8.129427 5.7618,9.989971 5.7627,46.073198 l 9e-4,33 h -12 -12 l -0.5,-29.17914 c -0.471,-27.488358 -0.6195,-29.339017 -2.5618,-31.938213 -3.3737,-4.514629 -7,-6.636399 -12.1137,-7.087655 -6.6058,-0.582934 -12.9416,2.714255 -15.7666,8.205008 -1.9105,3.713433 -2.079,6.023882 -2.3518,32.25 L 1489.9122,154 H 1477.9561 1466 Z m 172,0 V 65 h 12 12 v 6.940983 c 0,3.817541 0.4146,7.197233 0.9214,7.510428 0.5067,0.313194 2.8899,-2.022748 5.2959,-5.190983 5.0875,-6.699353 10.5964,-10.095725 17.7494,-10.942896 l 5.0952,-0.603444 -0.281,12.892956 L 1690.5,88.5 l -5.0387,0.615034 c -9.7335,1.188109 -17.096,6.828217 -20.6685,15.833486 -1.9784,4.98681 -2.241,7.76377 -2.5821,27.30148 L 1661.8309,154 H 1649.9155 1638 Z m 180.4714,43.2819 C 1818.2018,152.07686 1818.0979,124.725 1818.2406,92 L 1818.5,32.5 h 12 12 V 93 153.5 l -11.7691,0.2819 c -8.8591,0.2122 -11.8904,-0.0351 -12.2595,-1 z" id="textoLogo"></path><path fill="#548cc6" d="M 257,557.89519 C 201.96985,553.08865 150.58593,532.54573 106.83591,497.86068 94.48823,488.07143 74.03209,467.79062 64.613333,456 47.477964,434.54954 29.625642,403.24471 20.700463,378.99685 13.473069,359.36153 7.7088275,335.77848 4.8137322,314 c -1.6414129,-12.3476 -1.6414129,-53.6524 0,-66 C 17.324225,153.88928 72.99749,74.732846 156.04664,32.976551 180.77055,20.545609 210.16907,11.317356 240.5,6.4664726 c 13.69056,-2.1895583 51.81273,-3.0641965 67.07389,-1.5388789 49.6353,4.9609319 98.50317,23.9092083 138.57531,53.7318943 18.78645,13.981348 22.13651,18.0637 22.13651,26.975335 0,4.940043 -1.37041,7.616738 -29.39285,57.410107 -31.76101,56.43648 -31.77706,56.45921 -40.70476,57.65667 -7.08067,0.94971 -10.83591,-1.19257 -23.35073,-13.32108 -21.74677,-21.07548 -44.62374,-33.11436 -71.76359,-37.76519 -11.97925,-2.05283 -33.05109,-2.09178 -44.69279,-0.0826 -54.83089,9.46292 -96.8566,50.13381 -109.02241,105.50778 -2.59875,11.82846 -2.58786,39.89123 0.0201,51.90693 6.02386,27.75344 17.52305,49.01676 37.09008,68.58378 11.93635,11.93636 21.92692,19.1313 36.0312,25.94871 19.75433,9.54841 35.08861,12.97774 58,12.97102 25.85984,-0.008 43.10305,-4.68755 64.01131,-17.37322 14.565,-8.83704 21.7749,-14.51497 31.93504,-25.14948 4.32681,-4.52882 7.6323,-7.33699 7.34553,-6.24038 -0.56809,2.1724 -97.17786,174.24578 -104.4637,186.06215 -5.1065,8.28187 -3.36207,7.80177 -22.32818,6.14519 z m 470,-0.58304 c -46.55386,-4.89177 -91.79958,-20.95597 -128.5,-45.62308 -10.34843,-6.95539 -25.22644,-18.64387 -28.88252,-22.69071 -4.30753,-4.76792 -6.14932,-10.8615 -4.84093,-16.01618 0.85414,-3.36504 53.74819,-98.61535 58.50186,-105.34871 2.39698,-3.39522 8.90323,-6.58072 13.50371,-6.61151 5.9247,-0.0396 10.46789,2.89381 22.1705,14.31508 21.31664,20.80418 43.97325,32.51726 71.94531,37.19453 14.85323,2.48363 38.73072,1.6307 52.68595,-1.88202 40.16204,-10.10933 71.80144,-35.9096 89.43643,-72.93074 24.28338,-50.97808 13.7779,-111.04251 -26.45935,-151.27977 -34.75718,-34.75718 -84.13264,-47.58165 -130.84504,-33.98487 -20.94137,6.0955 -42.53498,19.99259 -60.16447,38.72032 -4.7033,4.99629 -8.55145,8.65092 -8.55145,8.1214 0,-0.97212 97.10116,-174.09688 105.80478,-188.642726 L 757.5,2.8063272 767,3.4609334 c 32.04027,2.207764 59.61011,8.1836936 86.3642,18.7199666 96.2295,37.897014 162.1142,123.38238 174.8125,226.8191 1.6687,13.59283 1.6577,50.54038 -0.019,64 -10.1874,81.77595 -54.08867,153.42657 -121.6577,198.55566 -36.8946,24.64175 -78.04296,39.66617 -123.05779,44.93184 -11.73848,1.37313 -46.40264,1.87959 -56.44221,0.82465 z" id="logoMaior"></path><path fill="#0b5399" d="m 281.03115,545.46429 c 0.0171,-0.53036 12.96043,-33.08976 28.76287,-72.35421 l 28.73172,-71.38993 8.55048,-5.158 c 11.06038,-6.67208 18.80384,-12.6917 27.16559,-21.11801 3.708,-3.73662 6.9377,-6.59796 7.17713,-6.35853 0.54781,0.54781 -96.98895,173.88738 -98.9655,175.87868 -0.79939,0.80535 -1.43942,1.03035 -1.42229,0.5 z M 651.12855,191.75 C 659.03011,176.92115 750.58823,15.105563 751.70264,14 c 1.34703,-1.336332 1.43117,-1.22722 0.77119,1 -0.83997,2.834575 -47.29541,118.84887 -54.10022,135.10577 l -4.43936,10.60577 -9.07633,5.37256 c -10.06088,5.95534 -25.98812,18.77568 -30.22213,24.32676 -3.05222,4.00167 -5.40457,4.89984 -3.50724,1.33914 z" id="LogoMenor"></path><path fill="#b6c62c" d="m 274.82295,558.86881 c -0.69738,-0.44203 4.8597,-8.26624 14.20987,-24.61774 18.6969,-32.69697 54.85575,-99.28737 95.01364,-168.65016 25.1378,-43.41931 50.23077,-81.91725 78.57754,-132.46358 28.58713,-50.97492 53.94079,-96.16887 56.34147,-100.43097 8.19292,-14.54547 25.97412,-38.284993 47.56432,-57.581008 13.72609,-12.267551 29.80379,-25.88533 43.32165,-34.661015 36.55488,-23.731135 67.6595,-30.4870929 109.03728,-35.6352207 9.07451,-1.1290301 37.48157,-2.2200188 37.48157,-1.4395006 0,0.2560417 -3.48834,6.5139198 -7.75187,13.9063953 -6.84036,11.860428 -29.87623,52.731239 -69.03192,122.478149 -6.73344,11.9941 -24.12628,44.70528 -39.69191,72.06683 -31.65536,55.64439 -65.06187,112.92106 -86.08039,150.77812 -20.95297,37.73897 -36.04438,63.61822 -43.31714,74.28165 -3.57888,5.24742 -7.64487,11.22743 -9.03552,13.28892 -7.44504,11.03642 -29.92124,33.96311 -45.74212,46.65892 -10.04301,8.05924 -25.31223,18.58082 -35.41318,24.40223 -10.30283,5.93774 -16.57484,10.08228 -42.4171,19.04148 -9.87878,3.42486 -19.38248,6.36649 -27.62338,8.84658 -12.70667,3.82406 -24.52049,5.58707 -33.79276,7.29608 -12.44476,2.29375 -39.4273,3.84271 -41.65005,2.43384 z" id="verdeLogo"></path></g></g></svg>