<svg version="1.1" id="Camada_1" xmlns="http://www.w3.org/2000/svg" x="0" y="0" viewBox="0 0 231 52.5" xml:space="preserve"><style>.st0{fill:#fff}</style><g id="g841"><g id="g1406"><path id="textoLogo" class="st0" d="M198.3 51.2c-.4-.2-.7-.3-.8-.3-.1 0 .2-.4.5-.9s.6-.9.6-.9l-.6-.4c-2.1-1.1-3-3.6-1.9-5.8.3-.6 1-1.4 1.5-1.7 1.5-1 3.9-.8 5.2.3l.4.4-.6.7-.7.7s-.3-.1-.5-.3c-1.2-.9-2.8-.5-3.4.9-.6 1.5.3 3.1 1.7 3.3.6.1 1.2-.1 2.1-.7.1-.1.2 0 .8.5.3.3.6.6.6.7 0 .2-.7.7-1.2 1-.4.2-.7.3-1.5.4-.2 0-.3.2-.7 1.2-.4.9-.5 1.2-.6 1.2-.1 0-.5-.2-.9-.3zm-48.1.2s-.1-2.5-.1-5.4v-5.3h2.2v.4c0 .7.1.7.6.3.8-.7 1.7-1 2.8-.7 2 .4 3.2 2.1 3 4.5-.1 1.3-.4 2.2-1.3 3-.6.6-1.3.9-2.3.9-.9 0-1.6-.2-2.2-.7-.6-.5-.6-.5-.7 1.4v1.6h-2zm5.2-4.5c.5-.2.9-.8 1.1-1.5.4-1.5-.6-3.1-2-3.1-1.5 0-2.5 1.7-1.9 3.3.4 1.4 1.6 1.9 2.8 1.3zm-37 2.1c-1.7-.2-3.2-1.3-4-2.8-.5-.9-.6-1.6-.6-2.7 0-1.7.5-2.9 1.6-4 1.2-1.2 2.6-1.7 4.4-1.6.5 0 1.2.1 1.5.2.7.2 1.7.7 2 1.1l.3.3-.3.4c-1.1 1.4-1 1.3-1.7.8-1.4-1-3.1-.9-4.3.1-.9.8-1.3 2-1.1 3.2.2 1.2.8 2.1 1.8 2.6.6.3.7.3 1.4.3.9 0 1.4-.2 2.2-.8.3-.2.5-.4.6-.4 0 0 .4.3.8.7l.7.7-.5.5c-1.2 1.2-2.9 1.6-4.8 1.4zm10.3 0c-2.2-.3-3.8-2-3.7-4.2 0-1.2.3-2.1 1.1-2.9 1.3-1.5 3.7-1.9 5.6-1 1.5.7 2.4 2.5 2.3 4.1-.5 2.7-2.7 4.4-5.3 4zm1.3-2c1.2-.4 1.9-1.7 1.5-2.9-.4-1.3-1.6-1.9-2.9-1.6-.5.1-1.3.9-1.4 1.4-.3.9-.1 1.9.6 2.6.6.6 1.4.8 2.2.5zm33.7 2c-1.8-.2-3-1.3-3.5-3.1-.5-1.9.4-4.2 2.1-5 2-1 4.4-.2 5.3 1.7.3.6.5 1.8.5 2.4v.4h-2.9c-2.8 0-2.9.1-2.9.2 0 .3.4.9.8 1.2.4.3.5.3 1.2.3.8 0 1-.1 1.8-.6l.3-.2.6.7c.3.3.6.5.6.6 0 .2-.7.7-1.2 1-.8.4-1.7.5-2.7.4zm2.2-5c0-.1 0-.3-.1-.6-.4-.8-.8-1.1-1.6-1.2-.6 0-1.1.2-1.4.7-.3.4-.5 1-.4 1.1 0 0 .8.1 1.8.1 1.3 0 1.7 0 1.7-.1zm42.2 5c-1.7-.2-3.2-1.6-3.6-3.2-.1-.5-.1-1.5 0-2 .3-1.1 1.2-2.3 2.2-2.8.6-.3 1.6-.5 2.2-.5.6 0 1.6.2 2.2.5 1.6.8 2.5 2.6 2.2 4.4-.4 2.4-2.6 3.9-5.2 3.6zm1.4-2c1-.3 1.7-1.4 1.5-2.4-.2-1.6-1.5-2.5-3-2.1-.5.1-1.3.9-1.4 1.4-.3 1.1 0 2.3.9 2.8.8.5 1.3.6 2 .3zm8.6 2c-1.2-.2-2.4-1-3-1.9-1-1.7-.6-4.4.9-5.6 1.6-1.3 4-1.3 5.4.1.8.8 1.2 2.1 1.2 3.3v.6h-2.8c-2.2 0-2.8 0-2.9.1-.1.3.5 1.2 1.1 1.5.7.3 1.8.2 2.6-.4.1-.1.3-.2.4-.2.1 0 .3.2.7.5.7.6.6.7-.2 1.2-.9.7-2.2 1-3.4.8zm2.3-5c0-.3-.3-.8-.5-1.1-.4-.4-.7-.5-1.3-.5-.5 0-.9.2-1.3.5-.3.3-.5.8-.5 1.1 0 .2.1.2 1.8.2 1.8-.1 1.8-.1 1.8-.2zm-39.5 4.9c-.6-.2-1.9-.8-2-1-.1-.1 0-.3.3-.8.2-.3.4-.6.4-.7s.4.1.8.3c1.6.8 2.9.7 2.9-.2 0-.4-.3-.6-1.4-.9-1.2-.4-1.6-.6-2-.9-.8-.7-1-1.8-.5-2.8.5-1.1 1.4-1.5 3-1.4.8 0 1.1.1 1.7.3 1 .4 1.1.4.7 1.2-.5.9-.5.9-.8.8-.3-.2-1.6-.6-2-.6-.7 0-1.1.5-.8.9.2.3.4.4 1.5.8s1.4.5 1.9.9.7.9.7 1.6c0 1.1-.4 1.8-1.3 2.2-.5.3-.7.3-1.6.3-.6.1-1.1.1-1.5 0zm7.3 0c-.6-.2-1.2-.8-1.5-1.3-.1-.3-.2-.6-.2-1.1 0-1.3.6-2 1.7-2.4.7-.2 2-.3 2.9-.1.7.1.8.1.7-.4-.1-.5-.4-.8-.8-1-.5-.2-1.7-.2-2.4 0-.8.2-.8.2-1.1-.6l-.2-.8c0-.1.4-.2.8-.4.7-.2.9-.3 2.1-.3 1.2 0 1.4 0 1.9.2.6.3 1.1.7 1.4 1.2.4.7.5 1.4.5 4.3v2.6h-2.2v-.3c0-.3-.2-.4-.5-.1-.6.4-1 .6-1.9.6-.5 0-.9 0-1.2-.1zm3-1.6c.4-.2.8-.8.8-1.3 0-.4-.2-.5-1-.7-1.3-.2-2.3.3-2.3 1.2 0 .9 1.4 1.4 2.5.8zm34.6 1.5c-.7-.2-1.7-.6-1.9-.9-.1-.1-.1-.2.3-.8.2-.4.4-.7.5-.7 0 0 .3.1.7.3 1.2.6 2.4.8 2.8.3.1-.1.2-.3.2-.4 0-.4-.4-.6-1.5-1-1.3-.4-1.5-.5-2-1-.9-.8-.9-2.3 0-3.3.6-.6 1.2-.8 2.3-.8.4 0 1 .1 1.3.1.7.2 1.5.6 1.6.7 0 .1-.7 1.5-.8 1.5 0 0-.2-.1-.5-.2-.6-.3-1.3-.5-1.7-.5-.4 0-.8.2-.9.5-.2.5.2.7 1.6 1.2 1.2.4 1.6.7 2 1.1.4.5.6.9.5 1.6-.1 1.1-.7 1.8-1.8 2.2-.7.4-1.8.4-2.7.1zm-90.3-4.1v-4.1h2.2v.5c0 .3 0 .5.1.5s.3-.1.5-.3c.6-.6 1.1-.8 1.9-.8.9 0 1.6.3 2 .8.1.2.3.3.3.3s.3-.2.7-.4c.7-.5 1.3-.7 2.1-.7.9 0 1.4.2 2 .7.7.7.8 1 .8 4.6v3h-2.2v-2.6c0-2.5 0-2.7-.2-3-.3-.5-.6-.7-1.2-.7s-.9.1-1.2.6c-.2.2-.2.4-.2 2.9v2.7h-2.2V46c0-2.5-.1-2.7-.2-2.9-.3-.4-.6-.6-1.1-.6-.6-.1-1.2.3-1.4.8-.2.3-.2.6-.2 3v2.6h-2.2v-4.2zm34.4 4v-8.1h2.2v.4c0 .6.1.6.5.2.7-.6 1.1-.8 2-.8.6 0 .8 0 1.3.3.4.2.7.4.8.7.5.7.6 1 .6 4.4v3h-2.2v-2.6c0-2.5 0-2.7-.2-3-.2-.4-.9-.7-1.3-.7s-1.1.4-1.3.7c-.2.3-.2.5-.2 2.9v2.6H171c-.8.1-1.1.1-1.1 0zm36.4-9.2c-.3-.1-.5-.2-.5-.3 0-.2.4-1.1.7-1.4.5-.5 1.2-.6 2.4-.2 1 .3 1.4.4 1.7 0 .1-.1.2-.3.2-.3 0-.1.3-.1.8.1.4.1.4.2.4.4-.1.4-.5 1.2-.8 1.4-.2.2-.4.3-.9.3s-.7 0-1.4-.3c-1-.3-1.3-.4-1.6-.1-.1.1-.2.3-.2.3-.1.3-.4.3-.8.1zm-50.8-5.3c-.7-.1-2-.6-2.1-.7-.1-.1.7-1.7.8-1.6 1.7.7 2.9.9 3.9.5.7-.3 1.2-1.1 1.2-2 0-.2 0-.3-.1-.4 0 0-.3.1-.5.3-.7.6-1.1.8-2.1.8-2.1 0-3.5-1.3-3.7-3.4-.1-1.3.3-2.5 1.2-3.3.7-.7 1.3-.9 2.4-.9 1 0 1.4.1 2.1.7.2.2.5.3.5.3s.1-.2.1-.5v-.4h2.2v3.6c0 2.7 0 3.8-.1 4.2-.3 1.5-1.1 2.3-2.6 2.7-.6.2-2.4.2-3.2.1zm2.8-5.3c1.3-.8 1.3-2.7 0-3.4-1.6-.9-3.6.4-3.2 2.2.1.6.7 1.2 1.2 1.4.7.2 1.5.1 2-.2zm-27.8 2.9c-.7-.2-1.2-.7-1.4-1.4-.1-.2-.1-1.4-.1-2.6 0-2.5 0-2.5-.7-2.5h-.3v-1.8h.4c.2 0 .4 0 .5-.1.1-.1.1-.4.1-1.1v-.9h2.2v1c0 .7 0 1 .1 1.1.1.1.5.1 1 .1h.9v1.8h-.9c-.5 0-.9.1-1 .1-.1.1-.2 3.6 0 4 .1.4.6.5 1.2.4.2-.1.5-.1.5-.1s.1.4.1.8v.8l-.4.2c-.5.3-1.7.4-2.2.2zm6.8-.1c-1.1-.4-2-1.1-2.5-2.2-.3-.6-.3-.7-.3-1.9v-1.2l.4-.8c.8-1.6 2.2-2.4 3.9-2.3 2.2.2 3.6 1.7 3.6 4.1v.9h-2.8c-1.5 0-2.8.1-2.9.1 0 0 0 .3.1.5.5 1.2 2.1 1.6 3.5.7.3-.2.5-.3.6-.2.1 0 .4.3.6.5.3.3.5.5.4.6-.1.3-1.1 1-1.8 1.2-.7.3-2 .3-2.8 0zm3-4.9c0-.3-.4-1.1-.7-1.3-.4-.3-1-.4-1.5-.3-.5.1-1.1.6-1.3 1.2-.3.7-.3.7 1.7.7 1.7-.1 1.7-.1 1.8-.3zm26 5c-1.6-.4-2.8-1.7-3-3.4-.4-2.8 1.6-5.2 4.3-5 1 .1 1.6.3 2.3 1 .9.8 1.4 2.2 1.4 3.5v.5h-5.8v.3c0 .4.4.9 1 1.2.8.4 1.8.3 2.6-.3l.4-.2c.1 0 .4.2.7.5l.6.5-.4.4c-.2.2-.7.5-1 .7-.6.3-.7.3-1.7.4-.6 0-1.2 0-1.4-.1zm2.7-4.9c.1-.2-.2-.9-.6-1.3-.7-.6-1.6-.6-2.3-.1-.3.3-.7.9-.7 1.3v.2h1.8c1.5 0 1.8 0 1.8-.1zm15.3 4.9c-.5-.2-.9-.5-1.2-1.1-.2-.4-.2-.6-.2-2.8 0-1.7-.1-2.4-.1-2.5-.1 0-.3-.1-.4-.1h-.3v-1.8h.8v-2h2.2v2h1.8v1.8h-.8c-.5 0-.9 0-1 .1-.1 0-.1.3-.1 2 0 1.8 0 2 .2 2.2.2.3.6.4 1.2.2.4-.1.5-.1.5 0v1.7l-.5.2c-.4.2-1.5.2-2.1.1zm7.1 0c-2.2-.6-3.5-2.8-2.9-5.2.5-2.1 2.3-3.4 4.3-3.2 1.8.2 3.1 1.3 3.5 3.3.1.4.1.9.1 1.2v.5h-2.9c-2.8 0-2.9.1-2.9.2s.1.4.3.6c.6 1 2.3 1.2 3.4.4l.4-.2c.2 0 1.2.9 1.2 1.1 0 .2-.7.8-1.4 1.1-.6.3-.7.3-1.7.3-.6 0-1.1 0-1.4-.1zm2.8-4.9c.1-.2-.2-.9-.5-1.3-.7-.7-1.7-.7-2.4 0-.3.3-.7 1-.6 1.3 0 .2 3.4.2 3.5 0zm10.9 4.8c-1.6-.5-2.6-2.1-2.6-4.1 0-1.6.5-2.8 1.5-3.5.7-.5 1.3-.7 2.2-.7.9 0 1.2.1 2 .7.3.2.5.4.6.3 0 0 .1-.9.1-2v-1.9h2.2v11.2h-2.2v-.5c0-.3 0-.5-.1-.5 0 0-.3.1-.5.3-.6.6-1.1.8-2 .8-.5.1-.8.1-1.2-.1zm2.3-1.8c.6-.2 1.2-.8 1.4-1.4.4-1.2-.1-2.6-1.1-3.1-.7-.4-1.7-.2-2.3.4-.6.6-.8 1.7-.5 2.6.2.5.9 1.3 1.4 1.4.5.3.6.3 1.1.1zm8.3 1.8c-.8-.2-1.1-.4-1.7-1-2-2-1.4-5.8 1.1-7 1.9-.9 4.1-.2 5.1 1.5.4.6.6 1.8.6 2.5v.6H218c-3.1 0-3.1 0-2.7.6.4.8 1 1.1 1.9 1.1.6 0 1.1-.2 1.6-.5.4-.3.5-.3 1.2.4l.5.4-.4.4c-.8.8-1.6 1.1-3 1.1-.6.1-1 0-1.4-.1zm2.9-4.8c0-.1 0-.3-.1-.6-.5-1.2-1.8-1.6-2.8-.7-.4.3-.7 1-.6 1.3.1.2 3.4.2 3.5 0zm-104.3-.6V21h2.2v10.6h-2.2v-5.3zm4.7 1.3v-4.1h2.2v.5c0 .6.2.6.6.2.7-.7 1.8-1 2.8-.7.8.2 1.2.6 1.6 1.3l.3.6v6.4h-2.2v-2.6c0-2.6 0-2.6-.3-3-.7-1.2-2.4-.9-2.8.5 0 .2-.1 1.4-.1 2.7v2.4H119v-4.2zm25.3-1.5v-5.6h2.2v11.2h-2.2v-5.6zm4.5 1.5v-4.1h2.2v8h-2.2v-3.9zm24.2 0v-4.1h2.2v.5c0 .3 0 .5.1.5s.3-.2.6-.4c.6-.5 1.3-.7 2.1-.7.8.1 1.3.3 1.7.8.7.8.7.9.7 4.5v3.1h-2.2v-2.6c0-2.5 0-2.6-.2-3-.3-.5-.6-.8-1.1-.8-.6-.1-1.2.2-1.5.8-.2.4-.2.5-.2 3v2.6H173v-4.2zm-24.2-6.1v-1h2.3v2h-2.3v-1zm-31-6.8c-1.9-.5-3.4-2-3.9-3.9-.2-.7-.2-2.2 0-2.9.4-1.4 1.4-2.8 2.7-3.4 1-.5 1.7-.7 3.1-.6.8 0 1.3.1 1.7.2.6.2 2 1 2.1 1.3 0 .1-1.2 1.7-1.3 1.7l-.6-.4c-.8-.5-1.4-.7-2.2-.7-1.1 0-2 .5-2.6 1.4-.4.6-.6 1.3-.6 2.1 0 2.4 2.2 4 4.5 3.2.2-.1.6-.3.9-.5.3-.2.6-.4.7-.4s.4.3.8.7l.7.7-.5.4c-.6.6-1.6 1.1-2.3 1.2-.9 0-2.5 0-3.2-.1zm10.3-.1c-1.2-.3-2.2-1.2-2.7-2.3-.6-1.3-.5-2.9.2-4.1 1.1-1.6 3-2.4 5-1.9 1.3.3 2.3 1.2 2.9 2.3 1.1 2.5-.1 5.2-2.8 6-.7.2-2 .2-2.6 0zm2.4-2c.5-.3.9-.8 1.1-1.5.5-1.9-1.5-3.6-3.2-2.7-.8.4-1.2 1.1-1.2 2.1 0 .7.2 1.1.6 1.6.7.9 1.7 1 2.7.5zm16.4 2.1c-.6-.2-.9-.4-1.2-.9-.2-.4-.2-.5-.3-2.9-.1-2.7 0-2.6-.7-2.6h-.3V6.4h.3c.6 0 .6-.1.7-1.2v-1h2.2v1c0 .5.1 1 .1 1.1.1.1.4.1 1 .1h.9v1.8h-.9c-.6 0-.9 0-1 .1-.1.1-.1.7-.1 2.1v1.9l.2.2c.2.2.3.2.8.1.3 0 .6-.1.7-.1.2-.1.2 0 .1.8v.9l-.5.2c-.4.4-1.5.4-2 .3zm13.5 0c-.8-.2-1.4-.6-2-1.2-.9-1-1.3-2.2-1.1-3.6.5-3 3.8-4.6 6.6-3.1.6.3 1.5 1.2 1.7 1.7.7 1.3.6 3-.1 4.2-.5.9-1.7 1.8-2.7 2-.5.1-1.9.1-2.4 0zm2.3-2.1c.5-.2 1-.8 1.1-1.4.1-.2.1-.6.1-.9-.1-1.3-1-2.2-2.3-2.2-.9 0-1.7.7-2 1.6-.2.6-.2.9 0 1.5.4 1.4 1.8 2.1 3.1 1.4zm12.3 2.1c-2-.6-3.1-2.3-3-4.4.1-1.4.7-2.5 1.7-3.3.8-.6 1.3-.7 2.5-.7 1.3 0 1.8.2 2.7 1 .5.5.7.8.9 1.2.3.7.5 2.3.4 2.5-.1.1-.4.2-2.9.2h-2.8v.2c0 .3.4.9.7 1.1.8.6 1.9.5 2.8-.1.2-.2.5-.3.5-.3.1 0 .4.2.7.5.6.6.6.6-.1 1.2s-1.3.7-2.5.8c-.8.2-1.4.1-1.6.1zm2.8-4.9c.1-.2-.3-1-.6-1.3-.4-.3-.9-.5-1.2-.5s-.9.2-1.1.5c-.3.3-.7 1.1-.7 1.3 0 .1.4.1 1.8.1 1.5 0 1.7 0 1.8-.1zm-42.3.7V6.4h2.2v.4c0 .6.2.6.7.1.6-.6 1.2-.8 2.1-.7.9.1 1.5.4 1.9 1 .6.8.6 1 .6 4.3v3h-2.2v-2.7c0-2.5-.1-2.7-.2-2.9-.3-.4-.6-.6-1.1-.7-.6-.1-1.2.2-1.5.8-.2.3-.2.6-.2 3v2.6h-2.2v-4.1zm15.8 0V6.4h2.2V7c0 .4 0 .7.1.7 0 0 .3-.2.5-.5.5-.6 1-.9 1.6-1l.5-.1v2.4l-.5.1c-.9.1-1.6.6-1.9 1.5-.2.5-.2.7-.2 2.5v2h-2.2v-4.1zm16.6 4V3.4h2.2v11.2H169c-.8 0-1 0-1.1-.1z"/><path id="logoMaior" class="st0" d="M24.3 51.8c-5.1-.4-9.8-2.3-13.8-5.5-1.1-.9-3-2.8-3.9-3.9-1.6-2-3.2-4.9-4-7.1-.7-1.8-1.2-4-1.5-6-.2-1.1-.2-4.9 0-6.1C2.2 14.6 7.3 7.3 15 3.5c2.3-1.1 5-2 7.8-2.4C24.1.9 27.6.8 29 1c4.6.5 9.1 2.2 12.7 4.9 1.7 1.3 2 1.7 2 2.5 0 .5-.1.7-2.7 5.3-2.9 5.2-2.9 5.2-3.7 5.3-.7.1-1-.1-2.1-1.2-2-1.9-4.1-3-6.6-3.5-1.1-.2-3-.2-4.1 0-5 .9-8.9 4.6-10 9.7-.2 1.1-.2 3.7 0 4.8.6 2.6 1.6 4.5 3.4 6.3 1.1 1.1 2 1.8 3.3 2.4 1.8.9 3.2 1.2 5.3 1.2 2.4 0 4-.4 5.9-1.6 1.3-.8 2-1.3 2.9-2.3.4-.4.7-.7.7-.6-.1.2-8.9 16-9.6 17.1-.5.7-.4.6-2.1.5zm43.2-.1c-4.3-.5-8.4-1.9-11.8-4.2-1-.6-2.3-1.7-2.7-2.1-.4-.4-.6-1-.4-1.5.1-.3 4.9-9.1 5.4-9.7.2-.3.8-.6 1.2-.6.5 0 1 .3 2 1.3 2 1.9 4 3 6.6 3.4 1.4.2 3.6.2 4.8-.2 3.7-.9 6.6-3.3 8.2-6.7 2.2-4.7 1.3-10.2-2.4-13.9-3.2-3.2-7.7-4.4-12-3.1-1.9.6-3.9 1.8-5.5 3.6-.4.5-.8.8-.8.7 0-.1 8.9-16 9.7-17.4l.4-.7.9.1c2.9.2 5.5.8 7.9 1.7 9 3.6 15 11.4 16.2 21 .2 1.3.2 4.6 0 5.9-.9 7.5-5 14.1-11.2 18.3-3.4 2.3-7.2 3.6-11.3 4.1-1.1.1-4.3.1-5.2 0z"/><path id="LogoMenor" d="M26.5 50.6s1.2-3 2.6-6.7l2.6-6.6.8-.5c1-.6 1.7-1.2 2.5-1.9.3-.3.6-.6.7-.6.1.1-8.9 16-9.1 16.2-.1.2-.1.2-.1.1zm34-32.5c.7-1.4 9.2-16.3 9.3-16.4.1-.1.1-.1.1.1-.1.3-4.4 10.9-5 12.4l-.4 1-.8.5c-.9.5-2.4 1.7-2.8 2.2-.3.4-.5.5-.4.2z" fill="#c8c7c7"/><path id="verdeLogo" d="M25.9 51.9c-.1 0 .4-.8 1.3-2.3 1.7-3 5-9.1 8.7-15.5 2.3-4 4.6-7.5 7.2-12.2 2.6-4.7 5-8.8 5.2-9.2.8-1.3 2.4-3.5 4.4-5.3 1.3-1.1 2.7-2.4 4-3.2 3.4-2.2 6.2-2.8 10-3.3.8-.1 3.4-.2 3.4-.1 0 0-.3.6-.7 1.3-.6 1.1-2.7 4.9-6.4 11.3-.6 1.1-2.2 4.1-3.7 6.6-2.9 5.1-6 10.4-7.9 13.9-1.9 3.5-3.3 5.9-4 6.8-.3.5-.7 1-.8 1.2-.7 1-2.8 3.1-4.2 4.3-.9.7-2.3 1.7-3.3 2.2-.9.5-1.5.9-3.9 1.8-.9.3-1.8.6-2.5.8-1.2.4-2.3.5-3.1.7-1 .1-3.5.3-3.7.2z" fill="#b3c22c"/></g></g></svg>