<svg xmlns="http://www.w3.org/2000/svg" viewBox="0 0 98 52.5"><path d="M24.3 51.8c-5.1-.4-9.8-2.3-13.8-5.5-1.1-.9-3-2.8-3.9-3.9-1.6-2-3.2-4.9-4-7.1-.7-1.8-1.2-4-1.5-6-.2-1.1-.2-4.9 0-6.1C2.2 14.6 7.3 7.3 15 3.5c2.3-1.1 5-2 7.8-2.4C24.1.9 27.6.8 29 1c4.6.5 9.1 2.2 12.7 4.9 1.7 1.3 2 1.7 2 2.5 0 .5-.1.7-2.7 5.3-2.9 5.2-2.9 5.2-3.7 5.3-.7.1-1-.1-2.1-1.2-2-1.9-4.1-3-6.6-3.5-1.1-.2-3-.2-4.1 0-5 .9-8.9 4.6-10 9.7-.2 1.1-.2 3.7 0 4.8.6 2.6 1.6 4.5 3.4 6.3 1.1 1.1 2 1.8 3.3 2.4 1.8.9 3.2 1.2 5.3 1.2 2.4 0 4-.4 5.9-1.6 1.3-.8 2-1.3 2.9-2.3.4-.4.7-.7.7-.6-.1.2-8.9 16-9.6 17.1-.5.7-.4.6-2.1.5zm43.2-.1c-4.3-.5-8.4-1.9-11.8-4.2-1-.6-2.3-1.7-2.7-2.1-.4-.4-.6-1-.4-1.5.1-.3 4.9-9.1 5.4-9.7.2-.3.8-.6 1.2-.6.5 0 1 .3 2 1.3 2 1.9 4 3 6.6 3.4 1.4.2 3.6.2 4.8-.2 3.7-.9 6.6-3.3 8.2-6.7 2.2-4.7 1.3-10.2-2.4-13.9-3.2-3.2-7.7-4.4-12-3.1-1.9.6-3.9 1.8-5.5 3.6-.4.5-.8.8-.8.7 0-.1 8.9-16 9.7-17.4l.4-.7.9.1c2.9.2 5.5.8 7.9 1.7 9 3.6 15 11.4 16.2 21 .2 1.3.2 4.6 0 5.9-.9 7.5-5 14.1-11.2 18.3-3.4 2.3-7.2 3.6-11.3 4.1-1.1.1-4.3.1-5.2 0z" fill="#fff"/><path d="M26.4 50.7s1.2-3 2.6-6.7l2.6-6.6.8-.5c1-.6 1.7-1.2 2.5-1.9.3-.3.6-.6.7-.6.1.1-8.9 16-9.1 16.2-.1.2-.1.2-.1.1zm34-32.5c.7-1.4 9.2-16.3 9.3-16.4.1-.1.1-.1.1.1-.1.3-4.4 10.9-5 12.4l-.4 1-.8.5c-.9.5-2.4 1.7-2.8 2.2-.3.4-.5.5-.4.2z" fill="#c8c7c7"/><path d="M26 51.8c-.1 0 .4-.8 1.3-2.3 1.7-3 5-9.1 8.7-15.5 2.3-4 4.6-7.5 7.2-12.2 2.6-4.7 5-8.8 5.2-9.2.8-1.3 2.4-3.5 4.4-5.3 1.3-1.1 2.7-2.4 4-3.2 3.4-2.2 6.2-2.8 10-3.3.8-.1 3.4-.2 3.4-.1 0 0-.3.6-.7 1.3-.6 1.1-2.7 4.9-6.4 11.3-.6 1.1-2.2 4.1-3.7 6.6-2.9 5.1-6 10.4-7.9 13.9s-3.3 5.9-4 6.8c-.3.5-.7 1-.8 1.2-.7 1-2.8 3.1-4.2 4.3-.9.7-2.3 1.7-3.3 2.2-.9.5-1.5.9-3.9 1.8-.9.3-1.8.6-2.5.8-1.2.4-2.3.5-3.1.7-1 .1-3.5.3-3.7.2z" fill="#b3c22c"/></svg>