<svg xmlns="http://www.w3.org/2000/svg" width="230" viewBox="0 0 2500 563"><path fill="#a4a2a2" d="M2149 551.442c-4.125-1.859-7.947-3.543-8.493-3.742-.547-.2 1.816-4.623 5.25-9.83 3.433-5.208 6.243-9.778 6.243-10.155 0-.378-2.785-2.092-6.19-3.81-23.05-11.637-32.189-38.998-21.009-62.905 2.883-6.165 10.706-14.998 16.593-18.735 16.797-10.663 42.473-9.029 56.713 3.608l4.311 3.826-6.959 7.633c-3.827 4.197-7.293 7.64-7.7 7.65-.408.01-2.781-1.539-5.274-3.441-13.46-10.275-30.625-5.475-36.491 10.206-6.029 16.111 2.955 33.343 18.664 35.801 6.573 1.029 13.346-1.311 22.577-7.8 1.5-1.053 2.623-.34 8.25 5.237 3.583 3.552 6.515 6.998 6.515 7.658 0 1.728-7.712 8.132-13.127 10.9-4.144 2.12-7.254 3.069-16.011 4.89-2.32.483-3.268 2.118-7.858 13.558-3.806 9.483-5.666 12.985-6.862 12.92-.903-.049-5.017-1.61-9.142-3.469zm-523.302 1.922c-.384-.383-.698-26.722-.698-58.53V437h24l.015 4.25c.026 7.234 1.183 7.743 6.487 2.854 8.324-7.672 18.646-10.455 30.042-8.1 21.91 4.526 34.581 23.264 33.134 48.996-.821 14.61-4.781 23.976-13.825 32.7-6.606 6.371-14.58 9.61-24.853 10.093-10.147.476-17.213-1.716-23.853-7.399-6.751-5.779-7.06-5.137-7.374 15.316l-.273 17.79-11.052.28c-6.08.155-11.367-.032-11.75-.416zm56.319-48.372c5.026-2.565 9.563-8.74 11.62-15.815 4.738-16.297-6.344-33.177-21.781-33.177-16.845 0-27.5 18.515-20.862 36.253 4.968 13.28 18.816 18.966 31.023 12.739zm-401.387 22.864c-18.302-2.327-35.271-14.109-43.828-30.428-5.025-9.585-6.802-17.273-6.802-29.428 0-18.196 5.246-31.293 17.46-43.588 12.58-12.663 27.73-18.102 47.54-17.067 5.775.302 12.975 1.292 16 2.199 7.788 2.335 18.114 7.947 22 11.956l3.31 3.415-3.588 4.293c-12.336 14.755-10.968 14.152-18.983 8.365-14.912-10.768-33.932-10.124-46.294 1.567-9.26 8.758-13.646 22.067-11.46 34.775 2.33 13.561 8.881 22.926 19.79 28.293 6.094 3 7.492 3.289 15.707 3.255 10.31-.043 15.308-1.8 24.18-8.497 2.888-2.181 5.62-3.966 6.07-3.966.45 0 4.182 3.41 8.293 7.579l7.475 7.579-5.953 5.458c-12.568 11.524-31.229 16.743-50.917 14.24zm111.106.132c-23.532-2.968-40.792-22.224-40.712-45.42.044-12.707 3.72-22.731 11.519-31.404 14.58-16.216 39.984-20.6 60.427-10.428 15.938 7.93 26.424 27.059 24.618 44.906-2.798 27.644-26.99 45.987-55.852 42.346zm14.65-21.404c13.143-3.955 20.242-18.031 16.166-32.053-3.972-13.664-17.34-21.168-31.052-17.43-5.262 1.436-13.595 9.901-15.271 15.515-3.05 10.216-.592 20.863 6.441 27.897 6.733 6.732 14.723 8.778 23.716 6.071zM1772.5 527.93c-19.505-2.584-33.043-14.56-38.008-33.622-5.521-21.196 4.689-45.363 22.965-54.36 22.051-10.856 48.047-2.484 58.07 18.701 3.114 6.584 5.707 19.381 5.28 26.062l-.307 4.79-31 .5c-30.059.485-31.008.56-31.254 2.5-.404 3.178 3.888 9.648 8.597 12.958 4.014 2.822 4.953 3.042 12.992 3.042 8.845 0 10.664-.553 19.777-6.013l3.111-1.865 6.139 5.339c3.376 2.936 6.138 5.894 6.138 6.573 0 1.864-7.31 8.083-12.73 10.83-8.606 4.36-19.132 5.974-29.77 4.565zm24.11-54.356c.302-.785-.41-3.592-1.58-6.238-3.896-8.807-8.997-12.472-17.466-12.548-6.725-.06-12.02 2.48-15.671 7.52-2.95 4.071-5.225 10.347-4.297 11.85.287.463 9.06.843 19.494.843 15.512 0 19.073-.26 19.52-1.427zM2255 527.898c-18.308-2.326-34.83-17.18-38.94-35.01-1.296-5.625-1.297-16.15 0-21.773 2.75-11.931 12.944-24.835 23.99-30.37 5.99-3.001 17.115-5.71 23.45-5.71 6.232 0 17.413 2.689 23.483 5.647 16.884 8.23 27.187 28.664 24.186 47.966-4.075 26.215-27.875 42.845-56.169 39.25zm15.911-21.464c10.654-3.164 18.13-15 16.763-26.54-2.005-16.929-16.367-27.103-32.174-22.792-5.262 1.435-13.595 9.9-15.271 15.514-3.568 11.95.477 24.615 9.84 30.811 6.947 4.597 12.695 5.426 20.842 3.007zm93.201 21.504c-12.779-1.694-26.08-10.383-32.397-21.162-11.052-18.857-6.68-47.379 9.367-61.114 16.857-14.43 43.828-13.8 58.76 1.37 8.428 8.562 13.531 22.671 12.952 35.812l-.294 6.656-30.787.265c-24.306.208-30.893.54-31.29 1.577-1.4 3.646 5.657 12.88 12.068 15.793 8.134 3.695 19.902 1.994 28.486-4.119 1.558-1.109 3.3-2.016 3.87-2.016.572 0 3.758 2.517 7.081 5.594 7.118 6.59 7.047 7.166-1.65 13.393-9.32 6.675-23.042 9.691-36.166 7.951zm24.888-54.97c0-3.17-2.836-9.183-5.803-12.307-3.977-4.187-8.03-5.947-13.697-5.947s-9.72 1.76-13.697 5.947c-2.967 3.124-5.803 9.138-5.803 12.307 0 1.973.564 2.032 19.5 2.032s19.5-.059 19.5-2.032zm-429.58 53.473c-6.957-1.72-20.219-8.175-21.735-10.578-.786-1.247-.036-3.188 3.284-8.49 2.367-3.78 4.466-7.06 4.665-7.288.2-.228 4.076 1.431 8.614 3.687 17.19 8.544 31.752 7.765 31.752-1.7 0-4.177-3.534-6.534-15.194-10.132-13.322-4.11-17.819-6.134-22.218-9.997-8.548-7.505-10.536-19.532-5.045-30.524 5.711-11.432 15.62-16.007 32.886-15.186 8.204.39 11.583 1.068 18.23 3.66 11.229 4.38 11.513 4.854 7.514 12.566-5.088 9.813-5.38 10.104-8.256 8.238-3.716-2.41-17.347-6.697-21.296-6.697-7.518 0-12.208 4.93-9.142 9.609 2.247 3.429 4.824 4.82 16.224 8.763 11.794 4.078 15.393 5.8 20.468 9.787 5.138 4.036 7.829 10.063 7.829 17.531 0 11.944-4.486 19.455-14.59 24.428-5.977 2.943-7.553 3.266-17.244 3.533-7.056.194-12.724-.216-16.746-1.21zm79.291-.097c-6.042-2.094-13.445-8.55-15.833-13.805-1.251-2.756-1.838-6.42-1.846-11.539-.022-13.593 6.115-22.044 18.968-26.12 7.91-2.51 21.46-2.889 31.32-.877 7.857 1.603 8.916.978 7.674-4.528-1.126-4.992-4.496-9.058-9.001-10.861-5.273-2.11-18.71-2.115-26.533-.01-9.128 2.456-8.634 2.71-11.721-6.052-1.54-4.372-2.586-8.507-2.325-9.19.262-.682 4.214-2.47 8.781-3.973 7.5-2.467 9.76-2.739 23.305-2.798 13.263-.058 15.637.19 20.5 2.151 6.926 2.792 12.284 7.18 15.53 12.718 4.535 7.74 5.434 15.37 5.453 46.322l.017 28.281-11.75-.281-11.75-.282-.314-3.25c-.357-3.706-1.837-4.093-5.302-1.387-6.165 4.815-11.168 6.443-20.884 6.796-6.995.254-10.763-.093-14.29-1.315zm32.496-17.495c4.866-2.662 8.793-9.155 8.793-14.538 0-4.134-2.441-5.799-10.656-7.266-14.008-2.501-25.344 3.271-25.344 12.906 0 10.325 15.395 15.36 27.207 8.898zm375.995 17.129c-7.596-1.99-17.979-6.969-20.62-9.887-1.39-1.537-1.11-2.322 3.089-8.64 2.54-3.823 4.79-7.151 5.002-7.396.211-.245 3.442 1.207 7.18 3.226 12.89 6.961 25.639 8.424 30.84 3.537 1.269-1.192 2.307-3.234 2.307-4.538 0-4.24-4.056-6.874-16.603-10.787-14.22-4.434-16.311-5.451-22.01-10.704-9.92-9.144-9.73-25.325.42-35.72 6.356-6.51 13.364-9.069 24.836-9.069 4.713 0 11.251.695 14.53 1.545 7.161 1.856 16.827 6.292 17.494 8.03.44 1.146-7.272 16.425-8.29 16.425-.244 0-2.566-1.075-5.16-2.388-6.056-3.067-14.65-5.612-18.948-5.612-4.272 0-8.939 2.384-9.765 4.989-1.678 5.287 1.772 7.949 17.496 13.5 12.729 4.495 17.561 7.176 22.213 12.325 4.632 5.128 6.158 9.973 5.545 17.61-.94 11.719-7.676 19.926-19.3 23.516-8.512 2.63-20.308 2.644-30.256.038zM1466 481.5V437h24v4.941c0 2.718.492 5.245 1.093 5.617.602.371 2.964-1.13 5.25-3.337 6.799-6.562 11.853-8.628 21.157-8.648 9.789-.02 17.644 3.127 21.976 8.806 1.519 1.992 3.134 3.621 3.59 3.621.455 0 3.692-2.168 7.193-4.817 7.365-5.575 13.605-7.683 22.741-7.683 10.078 0 15.673 2.062 21.554 7.945 8.018 8.02 8.446 10.546 8.446 49.87V526h-23.887l-.307-28.75c-.284-26.638-.453-29-2.306-32.145-3.315-5.629-6.78-7.572-13.5-7.572-6.37 0-9.52 1.606-13.438 6.85-1.942 2.599-2.091 4.45-2.562 31.938l-.5 29.179h-24l-.5-29.18c-.471-27.488-.62-29.338-2.562-31.937-3.266-4.371-6.868-6.567-11.574-7.058-6.095-.634-12.546 2.81-15.306 8.175-1.91 3.711-2.08 6.039-2.365 32.25l-.307 28.25H1466zm373.47 43.282c-.27-.705-.374-20.632-.231-44.282l.261-43h24l.285 4c.489 6.864.837 7.006 5.966 2.446 7.18-6.384 12.28-8.354 21.749-8.402 6.934-.035 8.8.359 14 2.958 3.895 1.946 7.13 4.504 9.224 7.292 5.858 7.801 6.276 10.957 6.276 47.387V526h-23.887l-.307-28.75c-.284-26.723-.449-28.997-2.329-32.25-2.31-3.998-9.303-8-13.977-8-4.674 0-11.667 4.002-13.977 8-1.864 3.226-2.062 5.734-2.523 32l-.5 28.5-11.77.282c-8.858.212-11.89-.035-12.26-1zm396.03-99.764c-2.946-.995-5.133-2.373-5.323-3.354-.42-2.164 4.312-12.477 7.13-15.54 5.397-5.863 13.167-6.506 25.693-2.124 10.868 3.801 15.275 3.886 18.548.354 1.349-1.455 2.452-3.03 2.452-3.5 0-1.31 3.151-1.022 8.4.767 4.376 1.49 4.706 1.83 4.132 4.25-1.142 4.807-5.424 12.651-8.532 15.629-2.65 2.539-3.98 2.989-9.783 3.31-5.605.31-8.115-.141-15.158-2.72-10.376-3.798-14.3-3.94-17.605-.635-1.35 1.35-2.454 2.876-2.454 3.393 0 1.793-2.529 1.85-7.5.17zm-552.447-58.478c-7.708-1.465-21.69-6.143-22.557-7.546-.903-1.461 7.421-18.245 8.757-17.656 18.158 7.998 31.429 9.574 42.69 5.068 7.686-3.075 13.057-12.039 13.057-21.79 0-1.924-.416-3.755-.925-4.07-.508-.314-3.096 1.31-5.75 3.607-7.55 6.537-12.299 8.266-22.825 8.31-22.983.095-38.212-13.92-40.16-36.96-1.233-14.599 3.388-27.398 13.096-36.27 7.86-7.184 14.51-9.598 26.564-9.646 10.715-.043 14.923 1.364 23.297 7.79 2.64 2.026 5.227 3.417 5.75 3.094.524-.324.953-2.587.953-5.03V251h24l-.017 39.25c-.013 29.85-.354 40.838-1.423 45.881-3.409 16.083-11.863 24.987-28.06 29.555-7.397 2.087-27.488 2.557-36.446.854zm31.342-56.926c14.167-8.302 14.246-28.88.142-37.145-17.61-10.32-38.6 4.146-34.405 23.712 1.355 6.318 7.15 13.013 13.191 15.242 6.168 2.276 15.464 1.478 21.072-1.809zm-303.055 31.492c-7.648-1.976-13.225-7.431-15.324-14.988-.553-1.99-1.007-14.74-1.01-28.333-.007-27.692.245-26.785-7.44-26.785H1384v-20h4.3c2.365 0 4.84-.54 5.5-1.2.778-.778 1.2-4.822 1.2-11.5V228h24v10.378c0 7.311.385 10.697 1.304 11.46.717.595 5.555 1.212 10.75 1.372l9.446.29v19l-9.5.5c-5.225.275-10.063.864-10.75 1.309-1.556 1.007-1.783 39.16-.256 43.174 1.518 3.994 6.999 5.899 13.165 4.576 2.717-.582 5.367-1.059 5.89-1.059.531 0 .951 3.998.951 9.056v9.056l-4.668 2.065c-5.126 2.268-18.515 3.344-23.992 1.929zm74.458-1.037c-12.246-3.915-21.547-12.095-27.113-23.846-3.093-6.53-3.185-7.113-3.185-20.3v-13.577l4.223-8.52c8.437-17.024 23.65-25.856 42.277-24.546 24.04 1.69 39.045 18.542 39.372 44.22l.128 10-30.465.265c-16.756.146-30.86.66-31.344 1.144-.505.505-.059 2.731 1.048 5.235 5.947 13.443 23.148 17.021 37.64 7.83 2.754-1.746 5.517-2.802 6.465-2.47.91.317 4.03 2.743 6.931 5.389 3.696 3.37 5.087 5.303 4.646 6.453-1.206 3.142-12.456 10.584-19.104 12.638-8.57 2.647-23.382 2.687-31.52.085zm32.01-53.736c.439-3.077-4.226-11.782-7.601-14.186-4.503-3.206-11.136-4.513-16.11-3.173-5.505 1.482-11.556 7.042-13.66 12.552-2.904 7.603-3.025 7.555 18.29 7.246 18.397-.267 18.78-.315 19.082-2.44zm282.946 54.641c-17.185-4.318-30.127-18.95-32.926-37.224-4.717-30.804 17.76-56.68 47.27-54.419 10.753.825 17.792 3.747 24.919 10.345 9.56 8.85 15.516 24.258 14.778 38.227l-.295 5.597-31 .5-31 .5.207 2.886c.34 4.749 4.641 10.11 10.422 12.991 8.779 4.375 19.551 3.31 28.578-2.824 2.066-1.404 4.251-2.553 4.855-2.553.603 0 3.903 2.539 7.332 5.642l6.235 5.642-3.815 3.92c-2.098 2.155-7.119 5.555-11.159 7.556-7.024 3.479-7.852 3.649-19 3.897-6.41.142-13.34-.165-15.4-.683zm29.899-53.512c1.017-2.651-2.604-10.185-6.655-13.845-7.138-6.449-17.02-6.877-24.646-1.069-3.584 2.73-7.352 9.786-7.352 13.768V289h19.031c16.202 0 19.12-.229 19.622-1.538zm166.05 53.178c-5.808-1.64-10.257-5.61-13.041-11.64-1.897-4.106-2.114-6.776-2.48-30.5-.276-17.983-.752-26.227-1.54-26.735-.629-.404-2.83-.741-4.892-.75L1971 271v-19.89l4.75-.305 4.75-.305.5-11 .5-11h24l.5 11 .5 11 10.25.285 10.25.285V271h-8.918c-4.905 0-9.63.273-10.5.607-1.374.527-1.582 3.403-1.582 21.865 0 19.787.14 21.435 2.012 23.816 2.655 3.375 6.323 4.049 12.818 2.354 4.107-1.072 5.436-1.113 5.793-.183.255.665.331 4.983.17 9.596l-.293 8.388-5 1.873c-6.499 2.435-18.578 3.08-24.796 1.324zm77.297.059c-24.264-6.923-37.54-30.811-31.46-56.606 5.305-22.506 24.485-36.647 47.118-34.738 19.873 1.676 33.517 14.475 37.895 35.548.846 4.072 1.405 9.922 1.242 13l-.295 5.597-31 .5c-30.045.485-31.009.562-31.286 2.5-.157 1.1 1.085 4.16 2.76 6.8 6.988 11.014 24.989 13.068 36.64 4.18 1.79-1.364 3.845-2.474 4.57-2.466 1.816.02 12.816 9.848 12.816 11.452 0 2.26-8 8.639-14.86 11.85-6 2.807-7.667 3.118-18.124 3.38-7.232.18-13.19-.19-16.016-.997zm30.487-52.678c1.246-2.016-2.062-9.586-5.96-13.638-7.578-7.88-18.863-8.047-26.516-.394-3.644 3.644-7.121 11.274-6.271 13.761.533 1.561 37.789 1.822 38.747.27zm118.013 52c-17.5-5.786-27.927-22.41-27.927-44.521 0-16.97 5.76-30.255 16.705-38.527 7.322-5.534 13.684-7.483 24.222-7.417 10.216.063 13.253 1.093 21.416 7.264 2.978 2.251 5.79 3.861 6.25 3.578.458-.284.834-9.94.834-21.457V218h24v122h-24v-4.941c0-2.718-.376-5.174-.837-5.458-.46-.284-2.817 1.276-5.239 3.468-6.784 6.14-12.045 8.261-21.383 8.624-5.996.232-9.567-.193-14.041-1.672zm25.24-19.536c6.09-1.809 13.2-9.002 15.071-15.25 4.02-13.414-1.146-27.733-12.021-33.327-7.733-3.977-18.688-1.894-24.981 4.75-6.24 6.589-8.58 18.614-5.593 28.726 1.642 5.557 10.026 13.965 15.319 15.362 5.554 1.467 6.45 1.448 12.205-.261zm90.26 19.633c-8.175-2.638-11.838-4.822-18.082-10.778-22.256-21.228-15.719-63.47 11.77-76.054 20.556-9.411 44.928-2.449 55.686 15.908 3.827 6.532 6.785 19.174 6.424 27.464l-.298 6.842-30.787.265c-34.231.294-33.368.095-29.874 6.888 4.21 8.187 11.318 12.376 20.879 12.303 6.73-.051 11.806-1.661 17.349-5.502 4.734-3.281 5.667-2.998 12.944 3.931l5.13 4.886-3.82 3.915c-8.16 8.36-17.708 11.842-32.252 11.76-6.3-.035-11.448-.66-15.069-1.828zm31.653-52.656c.324-.845-.19-3.581-1.145-6.08-5.097-13.348-20.1-17.166-30.506-7.765-4.05 3.66-7.672 11.194-6.655 13.845.885 2.306 37.421 2.306 38.306 0zM1236 281.5v-58.562l12.25.281 12.25.281v116l-12.25.28-12.25.282zm51 14V251h24v4.531c0 6.144 2.03 6.802 6.82 2.21 8.056-7.724 19.538-10.523 30.316-7.39 8.4 2.442 13.135 6.424 17.021 14.314l3.343 6.786.32 34.275.32 34.274h-23.955l-.343-28.25c-.337-27.796-.381-28.318-2.776-32.5-7.487-13.071-26.627-9.685-30.108 5.327-.5 2.158-.921 15.51-.934 29.673L1311 340h-24zm275-16.5v-61h24v122h-24zm49 16.5v-44.562l12.25.281 12.25.281v88l-12.25.28-12.25.282zm263 0V251h24v5c0 2.75.456 5 1.014 5s3.486-2.013 6.507-4.474c6.96-5.67 14.43-8.007 23.022-7.204 8.724.814 13.817 3.172 18.782 8.695 7.34 8.163 7.675 10.288 7.675 48.598V340h-24v-27.788c0-26.846-.076-27.938-2.25-32.192-2.92-5.713-6.459-8.198-12.425-8.725-6.91-.61-13.072 2.712-16.075 8.667-2.172 4.308-2.25 5.421-2.25 32.25V340h-24zm-263-67V218h25v21h-25zm-337-74.07c-20.83-5.446-37.156-21.928-42.485-42.89-1.98-7.79-1.965-24.391.028-32.045 4.079-15.66 15.446-30.145 29.32-37.363 11.329-5.894 18.972-7.449 33.637-6.842 8.334.345 14.048 1.148 18.706 2.63 6.691 2.129 21.493 11.134 22.466 13.668.46 1.2-13.207 18.427-14.6 18.401-.314-.006-3.438-2.012-6.941-4.459-8.154-5.695-14.757-7.875-23.631-7.804-12.113.097-21.668 5.28-28.446 15.43-4.607 6.9-6.542 13.949-6.407 23.344.379 26.38 24.276 43.495 48.7 34.877 2.141-.755 6.732-3.4 10.202-5.875 3.47-2.476 6.69-4.502 7.155-4.502.465 0 4.21 3.41 8.32 7.579l7.476 7.579-5.377 4.863c-6.693 6.056-16.85 11.467-25.227 13.442-8.054 1.898-25.577 1.881-32.896-.033zm111.105-.012c-13.16-3.54-23.871-12.507-29.767-24.922-6.701-14.11-5.672-31.518 2.617-44.275 11.573-17.81 32.348-25.774 53.952-20.681 13.843 3.263 25.41 12.503 31.236 24.951 12.466 26.64-1.308 56.363-30.074 64.898-6.734 1.997-20.59 2.012-27.964.029zm26.322-22.293c5.711-3.042 9.806-8.759 11.584-16.171 5.01-20.881-15.795-38.655-34.52-29.493-8.675 4.244-13.491 12.383-13.491 22.799 0 7.246 1.816 12.25 6.29 17.333 8.248 9.37 19.17 11.375 30.137 5.532zm178.24 22.505c-6.303-1.777-9.6-4.308-12.667-9.719-2.453-4.328-2.51-4.912-3-31.2-.553-29.654-.304-28.667-7.25-28.696L1563 85V65l3.75-.015c6.309-.026 6.694-.701 7.25-12.695l.5-10.79h23l.287 10.442c.158 5.743.776 11.031 1.373 11.75.752.907 3.96 1.308 10.462 1.308H1619v20h-9.378c-6.883 0-9.69.378-10.556 1.42-.847 1.02-1.093 7.402-.873 22.591l.307 21.17 2.486 2.01c2.055 1.663 3.53 1.933 8.5 1.557 3.308-.25 6.818-.8 7.802-1.223 1.658-.712 1.767-.055 1.5 9.075l-.288 9.842-5 1.865c-6.56 2.448-17.662 3.064-23.832 1.323zm147.02-.132c-8.264-2.272-15.46-6.592-21.506-12.91-10.241-10.703-14.65-24.391-12.445-38.636 5.049-32.619 41.126-49.686 72.02-34.071 6.414 3.241 15.894 12.55 19.009 18.664 7.3 14.33 6.87 32.164-1.103 45.77-5.57 9.504-18.763 19.086-29.774 21.625-6.056 1.396-20.395 1.154-26.2-.442zm25.304-21.894c5.306-2.615 10.502-9.015 12.093-14.896.627-2.314.924-6.921.66-10.237-1.12-14.12-11.278-23.512-25.36-23.449-9.8.044-18.874 7.153-21.828 17.1-1.926 6.488-1.959 10.222-.14 16.264 4.562 15.16 20.477 22.164 34.575 15.218zM1895 154.619c-21.5-6.239-34.108-24.574-32.743-47.619.902-15.217 7.185-27.648 17.994-35.606 8.464-6.23 14.185-7.906 26.749-7.833 14.317.083 20.09 2.337 29.066 11.348 5.052 5.072 7.185 8.153 9.255 13.365 3.197 8.052 5.668 24.934 4.03 27.532-.96 1.522-4.178 1.72-31.71 1.958l-30.641.265.016 2.235c.025 3.433 4.133 9.92 7.881 12.446 8.897 5.996 20.28 5.735 30.422-.698 2.612-1.656 5.297-3.011 5.965-3.01.669 0 3.915 2.436 7.215 5.412 6.94 6.258 6.9 6.728-1.09 12.843-7.96 6.092-14.217 8.04-26.91 8.376-6.94.184-12.66-.19-15.5-1.014zm30.39-53.192c.938-2.446-3.278-11.121-6.989-14.38-3.091-2.714-8.809-5.036-12.401-5.036-3.592 0-9.31 2.322-12.401 5.036-3.588 3.15-8.086 12.241-7.2 14.55.436 1.136 4.147 1.403 19.463 1.403 16.288 0 19.008-.22 19.527-1.573zM1466 109.5V65h24v4.531c0 6.422 1.946 6.728 7.823 1.231 6.467-6.049 13.083-8.21 22.873-7.469 9.528.72 16.45 4.384 21.04 11.134 5.53 8.13 5.762 9.99 5.763 46.073l.001 33h-24l-.5-29.18c-.471-27.487-.62-29.338-2.562-31.937-3.374-4.515-7-6.637-12.114-7.088-6.605-.583-12.941 2.714-15.766 8.205-1.91 3.713-2.08 6.024-2.352 32.25l-.294 28.25H1466zm172 0V65h24v6.941c0 3.818.415 7.197.921 7.51.507.314 2.89-2.022 5.296-5.19 5.088-6.7 10.597-10.096 17.75-10.943l5.095-.604-.281 12.893-.281 12.893-5.039.615c-9.733 1.188-17.096 6.828-20.668 15.834-1.979 4.986-2.241 7.763-2.582 27.301l-.38 21.75H1638zm180.471 43.282c-.27-.705-.373-28.057-.23-60.782l.259-59.5h24v121l-11.77.282c-8.858.212-11.89-.035-12.259-1z"/><path fill="#548cc6" d="M257 557.895c-55.03-4.806-106.414-25.35-150.164-60.034-12.348-9.79-32.804-30.07-42.223-41.861-17.135-21.45-34.987-52.755-43.913-77.003C13.473 359.362 7.71 335.778 4.814 314c-1.642-12.348-1.642-53.652 0-66 12.51-94.11 68.183-173.267 151.233-215.023 24.724-12.431 54.122-21.66 84.453-26.51 13.69-2.19 51.813-3.065 67.074-1.54 49.635 4.962 98.503 23.91 138.575 53.732 18.787 13.982 22.137 18.064 22.137 26.976 0 4.94-1.37 7.617-29.393 57.41-31.761 56.436-31.777 56.46-40.705 57.657-7.08.95-10.836-1.193-23.35-13.321-21.747-21.076-44.624-33.115-71.764-37.766-11.98-2.053-33.051-2.091-44.693-.082-54.83 9.463-96.857 50.134-109.022 105.508-2.6 11.828-2.588 39.89.02 51.906 6.024 27.754 17.523 49.017 37.09 68.584 11.936 11.937 21.927 19.132 36.031 25.949 19.754 9.548 35.089 12.978 58 12.97 25.86-.007 43.103-4.687 64.011-17.372 14.565-8.837 21.775-14.515 31.935-25.15 4.327-4.529 7.633-7.337 7.346-6.24-.568 2.172-97.178 174.246-104.464 186.062-5.106 8.282-3.362 7.802-22.328 6.145zm470-.583c-46.554-4.892-91.8-20.956-128.5-45.623-10.348-6.955-25.226-18.644-28.883-22.69-4.307-4.769-6.149-10.862-4.84-16.017.854-3.365 53.748-98.615 58.501-105.349 2.397-3.395 8.904-6.58 13.504-6.611 5.925-.04 10.468 2.894 22.17 14.315 21.317 20.804 43.974 32.517 71.946 37.195 14.853 2.483 38.73 1.63 52.686-1.882 40.162-10.11 71.801-35.91 89.436-72.931 24.284-50.978 13.778-111.043-26.459-151.28-34.757-34.757-84.133-47.582-130.845-33.985-20.941 6.096-42.535 19.993-60.165 38.72-4.703 4.997-8.551 8.651-8.551 8.122 0-.972 97.101-174.097 105.805-188.643l4.695-7.847 9.5.655c32.04 2.208 59.61 8.184 86.364 18.72 96.23 37.897 162.114 123.382 174.813 226.819 1.668 13.593 1.657 50.54-.02 64-10.187 81.776-54.088 153.427-121.657 198.556-36.895 24.641-78.043 39.666-123.058 44.932-11.738 1.373-46.402 1.88-56.442.824z"/><path fill="#0b5399" d="M281.031 545.464c.017-.53 12.96-33.09 28.763-72.354l28.732-71.39 8.55-5.158c11.06-6.672 18.804-12.692 27.166-21.118 3.708-3.736 6.938-6.598 7.177-6.358.548.547-96.989 173.887-98.966 175.878-.799.806-1.439 1.03-1.422.5zM651.13 191.75c7.9-14.829 99.459-176.644 100.573-177.75 1.347-1.336 1.43-1.227.77 1-.84 2.835-47.295 118.849-54.1 135.106l-4.439 10.606-9.076 5.372c-10.061 5.955-25.988 18.776-30.222 24.327-3.052 4.002-5.405 4.9-3.507 1.339z"/><path fill="#b6c62c" d="M274.823 558.869c-.697-.442 4.86-8.266 14.21-24.618 18.697-32.697 54.856-99.287 95.013-168.65 25.138-43.42 50.231-81.917 78.578-132.464a230654.36 230654.36 0 0156.341-100.43c8.193-14.546 25.975-38.286 47.565-57.582 13.726-12.267 29.804-25.885 43.321-34.66 36.555-23.732 67.66-30.488 109.038-35.636 9.074-1.129 37.481-2.22 37.481-1.44 0 .257-3.488 6.515-7.752 13.907-6.84 11.86-29.876 52.731-69.032 122.478-6.733 11.994-24.126 44.705-39.691 72.067-31.656 55.644-65.062 112.921-86.08 150.778-20.954 37.74-36.045 63.618-43.318 74.282a4572.419 4572.419 0 00-9.035 13.289c-7.446 11.036-29.922 33.963-45.743 46.659-10.043 8.059-25.312 18.58-35.413 24.402-10.303 5.938-16.575 10.082-42.417 19.041-9.879 3.425-19.382 6.367-27.623 8.847-12.707 3.824-24.52 5.587-33.793 7.296-12.445 2.294-39.427 3.843-41.65 2.434z"/></svg>